<svg width="424" height="319" viewBox="0 0 424 319" fill="none" xmlns="http://www.w3.org/2000/svg">
<g clip-path="url(#clip0_13_3405)">
<path opacity="0.1" d="M354.037 91.5148C350.467 81.4618 345.643 72.1358 339.732 63.865L141.281 61.4943L304.673 33.656C294.119 28.5547 282.882 25.8503 271.522 25.6775C255.892 10.515 236.644 1.88003 216.643 1.05753C196.642 0.235031 176.956 7.26899 160.515 21.1127C147.375 12.9208 132.81 8.6652 118.036 8.70174C73.9438 8.70174 37.2017 45.75 28.9585 94.8802L354.037 91.5148Z" fill="white"/>
<path opacity="0.1" d="M361 132.719C361.01 119.396 358.911 106.195 354.817 93.8333L10.8751 137.628C7.33814 145.408 4.63143 153.702 2.82043 162.31L109.327 181.564L0.390137 195.604C3.66694 251.22 42.9716 295.14 90.9891 295.14C115.156 295.14 137.115 284.008 153.39 265.857C169.711 284.349 191.881 295.721 216.31 295.721C252.556 295.721 283.836 270.687 298.404 234.489C327.631 223.257 350.317 194.982 358.104 159.634L223.406 134.311H360.98C360.98 133.782 361 133.252 361 132.719Z" fill="white"/>
<path opacity="0.1" d="M289.407 286.058C297.354 286.058 303.797 284.984 303.797 283.659C303.797 282.335 297.354 281.261 289.407 281.261C281.46 281.261 275.017 282.335 275.017 283.659C275.017 284.984 281.46 286.058 289.407 286.058Z" fill="white"/>
<path opacity="0.1" d="M335.417 296.355C343.365 296.355 349.807 295.281 349.807 293.956C349.807 292.631 343.365 291.557 335.417 291.557C327.47 291.557 321.027 292.631 321.027 293.956C321.027 295.281 327.47 296.355 335.417 296.355Z" fill="white"/>
<path opacity="0.1" d="M306.634 318.004C314.582 318.004 321.024 316.93 321.024 315.605C321.024 314.28 314.582 313.207 306.634 313.207C298.687 313.207 292.244 314.28 292.244 315.605C292.244 316.93 298.687 318.004 306.634 318.004Z" fill="white"/>
</g>
<path fill-rule="evenodd" clip-rule="evenodd" d="M159.656 180.78C154.323 171.107 157.841 158.942 167.514 153.609L321.602 68.6562C331.275 63.3232 343.44 66.8415 348.773 76.5144L362.646 101.678C353.236 107.189 349.882 119.232 355.179 128.839C360.476 138.446 372.449 142.038 382.132 137.022L396.678 163.405C402.011 173.078 398.493 185.242 388.82 190.575L234.732 275.528C225.059 280.861 212.894 277.343 207.561 267.67L193.014 241.283C193.22 241.179 193.425 241.07 193.629 240.958C203.392 235.575 206.944 223.296 201.561 213.533C196.178 203.769 183.899 200.218 174.136 205.601C173.932 205.714 173.73 205.829 173.532 205.947L159.656 180.78Z" fill="white" fill-opacity="0.1"/>
<path fill-rule="evenodd" clip-rule="evenodd" d="M159.656 139.78C154.323 130.107 157.841 117.942 167.514 112.609L321.602 27.6563C331.275 22.3233 343.44 25.8416 348.773 35.5146L362.646 60.6779C353.236 66.1896 349.882 78.2317 355.179 87.8387C360.476 97.4457 372.449 101.038 382.132 96.0223L396.678 122.405C402.011 132.078 398.493 144.243 388.82 149.576L234.732 234.529C225.059 239.862 212.894 236.343 207.561 226.67L193.014 200.284C193.22 200.179 193.425 200.07 193.629 199.958C203.392 194.575 206.944 182.296 201.561 172.533C196.178 162.769 183.899 159.218 174.136 164.601C173.932 164.714 173.73 164.829 173.532 164.948L159.656 139.78Z" fill="url(#paint0_linear_13_3405)"/>
<path d="M289.054 61.5713L341.471 157.295" stroke="white" stroke-width="3" stroke-linecap="round" stroke-linejoin="bevel" stroke-dasharray="6 6"/>
<line x1="211.856" y1="126.635" x2="262.087" y2="97.9629" stroke="white" stroke-opacity="0.2" stroke-width="20" stroke-linecap="round"/>
<line x1="228.05" y1="156.215" x2="259.918" y2="138.234" stroke="white" stroke-opacity="0.2" stroke-width="20" stroke-linecap="round"/>
<defs>
<linearGradient id="paint0_linear_13_3405" x1="312.315" y1="191.755" x2="245.097" y2="69.8357" gradientUnits="userSpaceOnUse">
<stop stop-color="#FD2A3C"/>
<stop offset="1" stop-color="#ED894E"/>
</linearGradient>
<clipPath id="clip0_13_3405">
<rect width="361" height="319" fill="white"/>
</clipPath>
</defs>
</svg>
