<svg width="333" height="70" viewBox="0 0 333 70" fill="none" xmlns="http://www.w3.org/2000/svg">
<circle cx="142" cy="38" r="32" fill="url(#paint0_linear_169_2)"/>
<path d="M156.61 39.1854L152.496 34.2827L158.428 29.305C159.782 28.169 161.801 28.3456 162.937 29.6994C164.073 31.0533 163.896 33.0717 162.542 34.2077L156.61 39.1854Z" fill="white"/>
<path d="M131.925 59.67C130.571 60.806 128.553 60.6294 127.417 59.2756C126.281 57.9217 126.457 55.9033 127.811 54.7673L145.951 39.5461L150.065 44.4488L131.925 59.67Z" fill="white"/>
<rect x="125.546" y="13.5004" width="6.4" height="53.6395" rx="3.2" transform="rotate(-39.7759 125.546 13.5004)" fill="white"/>
<rect x="127" y="12" width="7" height="48" rx="3.5" fill="white"/>
<path d="M18.8232 48C18.5628 47.4954 18.335 46.6735 18.1396 45.5342C16.2516 47.5036 13.9404 48.4883 11.2061 48.4883C8.55306 48.4883 6.38835 47.7314 4.71191 46.2178C3.03548 44.7041 2.19727 42.8324 2.19727 40.6025C2.19727 37.7868 3.23893 35.6302 5.32227 34.1328C7.42188 32.6191 10.4167 31.8623 14.3066 31.8623H17.9443V30.1289C17.9443 28.7617 17.5618 27.6712 16.7969 26.8574C16.0319 26.0273 14.8682 25.6123 13.3057 25.6123C11.9548 25.6123 10.848 25.9541 9.98535 26.6377C9.12272 27.305 8.69141 28.1595 8.69141 29.2012H2.75879C2.75879 27.7526 3.23893 26.4017 4.19922 25.1484C5.15951 23.8789 6.46159 22.8861 8.10547 22.1699C9.76562 21.4538 11.613 21.0957 13.6475 21.0957C16.7399 21.0957 19.2057 21.877 21.0449 23.4395C22.8841 24.9857 23.8281 27.1667 23.877 29.9824V41.8965C23.877 44.2728 24.2106 46.1689 24.8779 47.585V48H18.8232ZM12.3047 43.7275C13.4766 43.7275 14.5752 43.4427 15.6006 42.873C16.6423 42.3034 17.4235 41.5384 17.9443 40.5781V35.5977H14.7461C12.5488 35.5977 10.8968 35.9801 9.79004 36.7451C8.68327 37.5101 8.12988 38.5924 8.12988 39.9922C8.12988 41.1315 8.50423 42.043 9.25293 42.7266C10.0179 43.3939 11.0352 43.7275 12.3047 43.7275ZM52.2227 35.0605C52.2227 39.1458 51.2949 42.4092 49.4395 44.8506C47.584 47.2757 45.0938 48.4883 41.9688 48.4883C39.0716 48.4883 36.7523 47.5361 35.0107 45.6318V58.1562H29.0781V21.584H34.5469L34.791 24.2695C36.5326 22.1536 38.9007 21.0957 41.8955 21.0957C45.1182 21.0957 47.641 22.3001 49.4639 24.709C51.3031 27.1016 52.2227 30.43 52.2227 34.6943V35.0605ZM46.3145 34.5479C46.3145 31.9111 45.7855 29.8197 44.7275 28.2734C43.6859 26.7272 42.1885 25.9541 40.2354 25.9541C37.8102 25.9541 36.0687 26.9551 35.0107 28.957V40.6758C36.085 42.7266 37.8428 43.752 40.2842 43.752C42.1722 43.752 43.6452 42.9951 44.7031 41.4814C45.7773 39.9515 46.3145 37.6403 46.3145 34.5479ZM79.3965 35.0605C79.3965 39.1458 78.4688 42.4092 76.6133 44.8506C74.7578 47.2757 72.2676 48.4883 69.1426 48.4883C66.2454 48.4883 63.9261 47.5361 62.1846 45.6318V58.1562H56.252V21.584H61.7207L61.9648 24.2695C63.7064 22.1536 66.0745 21.0957 69.0693 21.0957C72.292 21.0957 74.8148 22.3001 76.6377 24.709C78.4769 27.1016 79.3965 30.43 79.3965 34.6943V35.0605ZM73.4883 34.5479C73.4883 31.9111 72.9593 29.8197 71.9014 28.2734C70.8597 26.7272 69.3623 25.9541 67.4092 25.9541C64.984 25.9541 63.2425 26.9551 62.1846 28.957V40.6758C63.2588 42.7266 65.0166 43.752 67.458 43.752C69.346 43.752 70.819 42.9951 71.877 41.4814C72.9512 39.9515 73.4883 37.6403 73.4883 34.5479ZM98.2451 40.8223C98.2451 39.7643 97.8057 38.9587 96.9268 38.4053C96.0641 37.8519 94.6237 37.3636 92.6055 36.9404C90.5872 36.5173 88.9027 35.9801 87.5518 35.3291C84.5895 33.8968 83.1084 31.8216 83.1084 29.1035C83.1084 26.8249 84.0687 24.9206 85.9893 23.3906C87.9098 21.8607 90.3512 21.0957 93.3135 21.0957C96.471 21.0957 99.0182 21.877 100.955 23.4395C102.908 25.002 103.885 27.0283 103.885 29.5186H97.9521C97.9521 28.3792 97.529 27.4352 96.6826 26.6865C95.8363 25.9215 94.7132 25.5391 93.3135 25.5391C92.0114 25.5391 90.9453 25.8402 90.1152 26.4424C89.3014 27.0446 88.8945 27.8503 88.8945 28.8594C88.8945 29.7708 89.277 30.4788 90.042 30.9834C90.807 31.488 92.3532 32.0007 94.6807 32.5215C97.0081 33.026 98.8311 33.6364 100.149 34.3525C101.484 35.0524 102.469 35.8988 103.104 36.8916C103.755 37.8844 104.08 39.0889 104.08 40.5049C104.08 42.8812 103.095 44.8099 101.126 46.291C99.1566 47.7559 96.5768 48.4883 93.3867 48.4883C91.222 48.4883 89.2933 48.0977 87.6006 47.3164C85.9079 46.5352 84.5895 45.4609 83.6455 44.0938C82.7015 42.7266 82.2295 41.2536 82.2295 39.6748H87.9912C88.0726 41.0745 88.6016 42.1569 89.5781 42.9219C90.5547 43.6706 91.8486 44.0449 93.46 44.0449C95.0225 44.0449 96.2106 43.752 97.0244 43.166C97.8382 42.5638 98.2451 41.7826 98.2451 40.8223Z" fill="white"/>
<path d="M194.847 39.8223C194.847 38.7643 194.407 37.9587 193.528 37.4053C192.666 36.8519 191.225 36.3636 189.207 35.9404C187.189 35.5173 185.504 34.9801 184.153 34.3291C181.191 32.8968 179.71 30.8216 179.71 28.1035C179.71 25.8249 180.67 23.9206 182.591 22.3906C184.511 20.8607 186.953 20.0957 189.915 20.0957C193.073 20.0957 195.62 20.877 197.557 22.4395C199.51 24.002 200.486 26.0283 200.486 28.5186H194.554C194.554 27.3792 194.131 26.4352 193.284 25.6865C192.438 24.9215 191.315 24.5391 189.915 24.5391C188.613 24.5391 187.547 24.8402 186.717 25.4424C185.903 26.0446 185.496 26.8503 185.496 27.8594C185.496 28.7708 185.879 29.4788 186.644 29.9834C187.409 30.488 188.955 31.0007 191.282 31.5215C193.61 32.026 195.433 32.6364 196.751 33.3525C198.086 34.0524 199.07 34.8988 199.705 35.8916C200.356 36.8844 200.682 38.0889 200.682 39.5049C200.682 41.8812 199.697 43.8099 197.728 45.291C195.758 46.7559 193.178 47.4883 189.988 47.4883C187.824 47.4883 185.895 47.0977 184.202 46.3164C182.509 45.5352 181.191 44.4609 180.247 43.0938C179.303 41.7266 178.831 40.2536 178.831 38.6748H184.593C184.674 40.0745 185.203 41.1569 186.18 41.9219C187.156 42.6706 188.45 43.0449 190.062 43.0449C191.624 43.0449 192.812 42.752 193.626 42.166C194.44 41.5638 194.847 40.7826 194.847 39.8223ZM203.759 33.5479C203.759 30.96 204.271 28.6325 205.297 26.5654C206.322 24.4821 207.763 22.887 209.618 21.7803C211.474 20.6572 213.606 20.0957 216.015 20.0957C219.579 20.0957 222.468 21.2432 224.682 23.5381C226.911 25.833 228.116 28.8766 228.295 32.6689L228.319 34.0605C228.319 36.6647 227.815 38.9922 226.806 41.043C225.813 43.0938 224.381 44.6807 222.509 45.8037C220.653 46.9268 218.505 47.4883 216.063 47.4883C212.336 47.4883 209.35 46.2513 207.104 43.7773C204.874 41.2871 203.759 37.9749 203.759 33.8408V33.5479ZM209.691 34.0605C209.691 36.7786 210.253 38.9108 211.376 40.457C212.499 41.987 214.062 42.752 216.063 42.752C218.065 42.752 219.62 41.9707 220.727 40.4082C221.85 38.8457 222.411 36.5589 222.411 33.5479C222.411 30.8786 221.833 28.7627 220.678 27.2002C219.538 25.6377 217.984 24.8564 216.015 24.8564C214.078 24.8564 212.54 25.6296 211.4 27.1758C210.261 28.7057 209.691 31.0007 209.691 34.0605ZM243.188 42.752C244.67 42.752 245.898 42.3206 246.875 41.458C247.852 40.5954 248.372 39.5293 248.438 38.2598H254.028C253.963 39.9036 253.451 41.4417 252.49 42.874C251.53 44.29 250.228 45.4131 248.584 46.2432C246.94 47.0732 245.166 47.4883 243.262 47.4883C239.567 47.4883 236.637 46.292 234.473 43.8994C232.308 41.5068 231.226 38.2028 231.226 33.9873V33.377C231.226 29.3568 232.3 26.1423 234.448 23.7334C236.597 21.3083 239.526 20.0957 243.237 20.0957C246.379 20.0957 248.934 21.0153 250.903 22.8545C252.889 24.6774 253.931 27.0781 254.028 30.0566H248.438C248.372 28.543 247.852 27.2979 246.875 26.3213C245.915 25.3447 244.686 24.8564 243.188 24.8564C241.268 24.8564 239.787 25.5563 238.745 26.9561C237.703 28.3395 237.174 30.4473 237.158 33.2793V34.2314C237.158 37.096 237.671 39.2363 238.696 40.6523C239.738 42.0521 241.235 42.752 243.188 42.752ZM263.819 47H257.887V20.584H263.819V47ZM257.521 13.7236C257.521 12.8122 257.805 12.0553 258.375 11.4531C258.961 10.8509 259.791 10.5498 260.865 10.5498C261.939 10.5498 262.77 10.8509 263.355 11.4531C263.941 12.0553 264.234 12.8122 264.234 13.7236C264.234 14.6188 263.941 15.3675 263.355 15.9697C262.77 16.5557 261.939 16.8486 260.865 16.8486C259.791 16.8486 258.961 16.5557 258.375 15.9697C257.805 15.3675 257.521 14.6188 257.521 13.7236ZM280.935 47.4883C277.175 47.4883 274.123 46.3083 271.779 43.9482C269.452 41.5719 268.288 38.4144 268.288 34.4756V33.7432C268.288 31.1064 268.793 28.7546 269.802 26.6875C270.827 24.6042 272.259 22.9847 274.099 21.8291C275.938 20.6735 277.989 20.0957 280.251 20.0957C283.848 20.0957 286.623 21.2432 288.576 23.5381C290.546 25.833 291.53 29.0801 291.53 33.2793V35.6719H274.27C274.449 37.8529 275.173 39.5781 276.442 40.8477C277.728 42.1172 279.34 42.752 281.276 42.752C283.994 42.752 286.208 41.6533 287.917 39.4561L291.115 42.5078C290.057 44.0866 288.641 45.3154 286.867 46.1943C285.109 47.057 283.132 47.4883 280.935 47.4883ZM280.227 24.8564C278.599 24.8564 277.281 25.4261 276.271 26.5654C275.279 27.7048 274.644 29.2917 274.367 31.3262H285.671V30.8867C285.541 28.901 285.012 27.4036 284.084 26.3945C283.156 25.3691 281.87 24.8564 280.227 24.8564ZM302.591 14.1631V20.584H307.254V24.9785H302.591V39.7246C302.591 40.7337 302.786 41.4661 303.177 41.9219C303.584 42.3613 304.3 42.5811 305.325 42.5811C306.009 42.5811 306.701 42.4997 307.4 42.3369V46.9268C306.049 47.3011 304.747 47.4883 303.494 47.4883C298.937 47.4883 296.658 44.9736 296.658 39.9443V24.9785H292.312V20.584H296.658V14.1631H302.591ZM320.048 38.5039L325.419 20.584H331.742L321.244 51.0039C319.633 55.4473 316.898 57.6689 313.041 57.6689C312.178 57.6689 311.226 57.5225 310.185 57.2295V52.6396L311.308 52.7129C312.805 52.7129 313.928 52.4362 314.677 51.8828C315.442 51.3457 316.044 50.4342 316.483 49.1484L317.338 46.8779L308.061 20.584H314.457L320.048 38.5039Z" fill="white"/>
<defs>
<linearGradient id="paint0_linear_169_2" x1="174" y1="38" x2="110" y2="38" gradientUnits="userSpaceOnUse">
<stop stop-color="#00BCD4"/>
<stop offset="1" stop-color="#008697"/>
</linearGradient>
</defs>
</svg>
