<svg width="333" height="70" viewBox="0 0 333 70" fill="none" xmlns="http://www.w3.org/2000/svg">
<circle cx="142" cy="38" r="32" fill="url(#paint0_linear_43_12608)"/>
<path d="M156.61 39.1854L152.496 34.2827L158.428 29.305C159.782 28.169 161.801 28.3456 162.937 29.6994V29.6994C164.073 31.0533 163.896 33.0717 162.542 34.2077L156.61 39.1854Z" fill="white"/>
<path d="M131.925 59.67C130.571 60.806 128.553 60.6294 127.417 59.2756V59.2756C126.281 57.9217 126.457 55.9033 127.811 54.7673L145.951 39.5461L150.065 44.4488L131.925 59.67Z" fill="white"/>
<rect x="125.546" y="13.5004" width="6.4" height="53.6395" rx="3.2" transform="rotate(-39.7759 125.546 13.5004)" fill="white"/>
<rect x="127" y="12" width="7" height="48" rx="3.5" fill="white"/>
<path d="M17.9199 42.7021V30.1045C17.9199 29.1605 17.749 28.3467 17.4072 27.6631C17.0654 26.9795 16.5446 26.4505 15.8447 26.0762C15.1611 25.7018 14.2985 25.5146 13.2568 25.5146C12.2965 25.5146 11.4665 25.6774 10.7666 26.0029C10.0667 26.3285 9.52148 26.7679 9.13086 27.3213C8.74023 27.8747 8.54492 28.5013 8.54492 29.2012H2.68555C2.68555 28.1595 2.93783 27.1504 3.44238 26.1738C3.94694 25.1973 4.67936 24.3265 5.63965 23.5615C6.59993 22.7965 7.7474 22.1943 9.08203 21.7549C10.4167 21.3154 11.9141 21.0957 13.5742 21.0957C15.5599 21.0957 17.3177 21.4294 18.8477 22.0967C20.3939 22.764 21.6064 23.7731 22.4854 25.124C23.3805 26.4587 23.8281 28.1351 23.8281 30.1533V41.8965C23.8281 43.1009 23.9095 44.1833 24.0723 45.1436C24.2513 46.0876 24.5036 46.9095 24.8291 47.6094V48H18.7988C18.5221 47.3652 18.3024 46.5596 18.1396 45.583C17.9932 44.5902 17.9199 43.6299 17.9199 42.7021ZM18.7744 31.9355L18.8232 35.5732H14.5996C13.5091 35.5732 12.5488 35.679 11.7188 35.8906C10.8887 36.0859 10.1969 36.3789 9.64355 36.7695C9.09017 37.1602 8.67513 37.6322 8.39844 38.1855C8.12174 38.7389 7.9834 39.3656 7.9834 40.0654C7.9834 40.7653 8.14616 41.4082 8.47168 41.9941C8.7972 42.5638 9.26921 43.0114 9.8877 43.3369C10.5225 43.6624 11.2874 43.8252 12.1826 43.8252C13.387 43.8252 14.4368 43.5811 15.332 43.0928C16.2435 42.5882 16.9596 41.9779 17.4805 41.2617C18.0013 40.5293 18.278 39.8376 18.3105 39.1865L20.2148 41.7988C20.0195 42.4661 19.6859 43.1823 19.2139 43.9473C18.7419 44.7122 18.1234 45.4447 17.3584 46.1445C16.6097 46.8281 15.7064 47.3896 14.6484 47.8291C13.6068 48.2686 12.4023 48.4883 11.0352 48.4883C9.3099 48.4883 7.77181 48.1465 6.4209 47.4629C5.06999 46.763 4.01204 45.8271 3.24707 44.6553C2.4821 43.4671 2.09961 42.1243 2.09961 40.627C2.09961 39.2272 2.36003 37.9902 2.88086 36.916C3.41797 35.8255 4.19922 34.9141 5.22461 34.1816C6.26628 33.4492 7.53581 32.8958 9.0332 32.5215C10.5306 32.1309 12.2396 31.9355 14.1602 31.9355H18.7744ZM34.8887 26.6621V58.1562H29.0049V21.584H34.4248L34.8887 26.6621ZM52.1006 34.5479V35.0605C52.1006 36.9811 51.8727 38.7633 51.417 40.4072C50.9775 42.0348 50.3184 43.459 49.4395 44.6797C48.5768 45.8841 47.5107 46.82 46.2412 47.4873C44.9717 48.1546 43.5068 48.4883 41.8467 48.4883C40.2028 48.4883 38.7624 48.1872 37.5254 47.585C36.3047 46.9665 35.2712 46.0957 34.4248 44.9727C33.5785 43.8496 32.8949 42.5312 32.374 41.0176C31.8695 39.4876 31.5114 37.8112 31.2998 35.9883V34.0107C31.5114 32.0739 31.8695 30.3161 32.374 28.7373C32.8949 27.1585 33.5785 25.7995 34.4248 24.6602C35.2712 23.5208 36.3047 22.6419 37.5254 22.0234C38.7461 21.4049 40.1702 21.0957 41.7979 21.0957C43.458 21.0957 44.931 21.4212 46.2168 22.0723C47.5026 22.707 48.585 23.6185 49.4639 24.8066C50.3428 25.9785 51.002 27.3945 51.4414 29.0547C51.8809 30.6986 52.1006 32.5296 52.1006 34.5479ZM46.2168 35.0605V34.5479C46.2168 33.3271 46.1029 32.196 45.875 31.1543C45.6471 30.0964 45.2891 29.1686 44.8008 28.3711C44.3125 27.5736 43.6859 26.9551 42.9209 26.5156C42.1722 26.0599 41.2689 25.832 40.2109 25.832C39.1693 25.832 38.2741 26.0111 37.5254 26.3691C36.7767 26.7109 36.1501 27.1911 35.6455 27.8096C35.141 28.4281 34.7503 29.1523 34.4736 29.9824C34.1969 30.7962 34.0016 31.6833 33.8877 32.6436V37.3799C34.083 38.5518 34.4167 39.626 34.8887 40.6025C35.3607 41.5791 36.028 42.3604 36.8906 42.9463C37.7695 43.516 38.8926 43.8008 40.2598 43.8008C41.3177 43.8008 42.221 43.5729 42.9697 43.1172C43.7184 42.6615 44.3288 42.0348 44.8008 41.2373C45.2891 40.4235 45.6471 39.4876 45.875 38.4297C46.1029 37.3717 46.2168 36.2487 46.2168 35.0605ZM62.0137 26.6621V58.1562H56.1299V21.584H61.5498L62.0137 26.6621ZM79.2256 34.5479V35.0605C79.2256 36.9811 78.9977 38.7633 78.542 40.4072C78.1025 42.0348 77.4434 43.459 76.5645 44.6797C75.7018 45.8841 74.6357 46.82 73.3662 47.4873C72.0967 48.1546 70.6318 48.4883 68.9717 48.4883C67.3278 48.4883 65.8874 48.1872 64.6504 47.585C63.4297 46.9665 62.3962 46.0957 61.5498 44.9727C60.7035 43.8496 60.0199 42.5312 59.499 41.0176C58.9945 39.4876 58.6364 37.8112 58.4248 35.9883V34.0107C58.6364 32.0739 58.9945 30.3161 59.499 28.7373C60.0199 27.1585 60.7035 25.7995 61.5498 24.6602C62.3962 23.5208 63.4297 22.6419 64.6504 22.0234C65.8711 21.4049 67.2952 21.0957 68.9229 21.0957C70.583 21.0957 72.056 21.4212 73.3418 22.0723C74.6276 22.707 75.71 23.6185 76.5889 24.8066C77.4678 25.9785 78.127 27.3945 78.5664 29.0547C79.0059 30.6986 79.2256 32.5296 79.2256 34.5479ZM73.3418 35.0605V34.5479C73.3418 33.3271 73.2279 32.196 73 31.1543C72.7721 30.0964 72.4141 29.1686 71.9258 28.3711C71.4375 27.5736 70.8109 26.9551 70.0459 26.5156C69.2972 26.0599 68.3939 25.832 67.3359 25.832C66.2943 25.832 65.3991 26.0111 64.6504 26.3691C63.9017 26.7109 63.2751 27.1911 62.7705 27.8096C62.266 28.4281 61.8753 29.1523 61.5986 29.9824C61.3219 30.7962 61.1266 31.6833 61.0127 32.6436V37.3799C61.208 38.5518 61.5417 39.626 62.0137 40.6025C62.4857 41.5791 63.153 42.3604 64.0156 42.9463C64.8945 43.516 66.0176 43.8008 67.3848 43.8008C68.4427 43.8008 69.346 43.5729 70.0947 43.1172C70.8434 42.6615 71.4538 42.0348 71.9258 41.2373C72.4141 40.4235 72.7721 39.4876 73 38.4297C73.2279 37.3717 73.3418 36.2487 73.3418 35.0605ZM98.0498 40.8467C98.0498 40.2607 97.9033 39.7318 97.6104 39.2598C97.3174 38.7715 96.7559 38.332 95.9258 37.9414C95.112 37.5508 93.9076 37.1927 92.3125 36.8672C90.9128 36.5579 89.627 36.1917 88.4551 35.7686C87.2995 35.3291 86.3066 34.8001 85.4766 34.1816C84.6465 33.5632 84.0036 32.8307 83.5479 31.9844C83.0921 31.138 82.8643 30.1615 82.8643 29.0547C82.8643 27.9805 83.1003 26.9632 83.5723 26.0029C84.0443 25.0426 84.7197 24.1963 85.5986 23.4639C86.4775 22.7314 87.5436 22.1536 88.7969 21.7305C90.0664 21.3073 91.4824 21.0957 93.0449 21.0957C95.2585 21.0957 97.1546 21.4701 98.7334 22.2188C100.328 22.9512 101.549 23.9521 102.396 25.2217C103.242 26.4749 103.665 27.891 103.665 29.4697H97.7812C97.7812 28.7699 97.6022 28.1188 97.2441 27.5166C96.9023 26.8981 96.3815 26.4017 95.6816 26.0273C94.9818 25.6367 94.1029 25.4414 93.0449 25.4414C92.0358 25.4414 91.1976 25.6042 90.5303 25.9297C89.8792 26.2389 89.391 26.6458 89.0654 27.1504C88.7562 27.6549 88.6016 28.2083 88.6016 28.8105C88.6016 29.25 88.6829 29.6488 88.8457 30.0068C89.0247 30.3486 89.3177 30.666 89.7246 30.959C90.1315 31.2357 90.6849 31.4961 91.3848 31.7402C92.1009 31.9844 92.9961 32.2204 94.0703 32.4482C96.0885 32.8714 97.8219 33.4167 99.2705 34.084C100.735 34.735 101.858 35.5814 102.64 36.623C103.421 37.6484 103.812 38.9505 103.812 40.5293C103.812 41.7012 103.559 42.7754 103.055 43.752C102.566 44.7122 101.85 45.5505 100.906 46.2666C99.9622 46.9665 98.8311 47.5117 97.5127 47.9023C96.2106 48.293 94.7458 48.4883 93.1182 48.4883C90.7256 48.4883 88.6992 48.0651 87.0391 47.2188C85.3789 46.3561 84.1175 45.2575 83.2549 43.9229C82.4085 42.5719 81.9854 41.1722 81.9854 39.7236H87.6738C87.7389 40.8141 88.04 41.6849 88.5771 42.3359C89.1305 42.9707 89.8141 43.4346 90.6279 43.7275C91.458 44.0042 92.3125 44.1426 93.1914 44.1426C94.2493 44.1426 95.1364 44.0042 95.8525 43.7275C96.5687 43.4346 97.1139 43.0439 97.4883 42.5557C97.8626 42.0511 98.0498 41.4814 98.0498 40.8467Z" fill="#111315"/>
<path d="M194.847 39.8467C194.847 39.2607 194.7 38.7318 194.407 38.2598C194.114 37.7715 193.553 37.332 192.723 36.9414C191.909 36.5508 190.704 36.1927 189.109 35.8672C187.71 35.5579 186.424 35.1917 185.252 34.7686C184.096 34.3291 183.104 33.8001 182.273 33.1816C181.443 32.5632 180.8 31.8307 180.345 30.9844C179.889 30.138 179.661 29.1615 179.661 28.0547C179.661 26.9805 179.897 25.9632 180.369 25.0029C180.841 24.0426 181.517 23.1963 182.396 22.4639C183.274 21.7314 184.34 21.1536 185.594 20.7305C186.863 20.3073 188.279 20.0957 189.842 20.0957C192.055 20.0957 193.951 20.4701 195.53 21.2188C197.125 21.9512 198.346 22.9521 199.192 24.2217C200.039 25.4749 200.462 26.891 200.462 28.4697H194.578C194.578 27.7699 194.399 27.1188 194.041 26.5166C193.699 25.8981 193.178 25.4017 192.479 25.0273C191.779 24.6367 190.9 24.4414 189.842 24.4414C188.833 24.4414 187.994 24.6042 187.327 24.9297C186.676 25.2389 186.188 25.6458 185.862 26.1504C185.553 26.6549 185.398 27.2083 185.398 27.8105C185.398 28.25 185.48 28.6488 185.643 29.0068C185.822 29.3486 186.115 29.666 186.521 29.959C186.928 30.2357 187.482 30.4961 188.182 30.7402C188.898 30.9844 189.793 31.2204 190.867 31.4482C192.885 31.8714 194.619 32.4167 196.067 33.084C197.532 33.735 198.655 34.5814 199.437 35.623C200.218 36.6484 200.608 37.9505 200.608 39.5293C200.608 40.7012 200.356 41.7754 199.852 42.752C199.363 43.7122 198.647 44.5505 197.703 45.2666C196.759 45.9665 195.628 46.5117 194.31 46.9023C193.007 47.293 191.543 47.4883 189.915 47.4883C187.522 47.4883 185.496 47.0651 183.836 46.2188C182.176 45.3561 180.914 44.2575 180.052 42.9229C179.205 41.5719 178.782 40.1722 178.782 38.7236H184.471C184.536 39.8141 184.837 40.6849 185.374 41.3359C185.927 41.9707 186.611 42.4346 187.425 42.7275C188.255 43.0042 189.109 43.1426 189.988 43.1426C191.046 43.1426 191.933 43.0042 192.649 42.7275C193.366 42.4346 193.911 42.0439 194.285 41.5557C194.66 41.0511 194.847 40.4814 194.847 39.8467ZM203.637 34.085V33.5234C203.637 31.6191 203.913 29.8532 204.467 28.2256C205.02 26.5817 205.818 25.1576 206.859 23.9531C207.917 22.7324 209.203 21.7884 210.717 21.1211C212.247 20.4375 213.972 20.0957 215.893 20.0957C217.829 20.0957 219.555 20.4375 221.068 21.1211C222.598 21.7884 223.892 22.7324 224.95 23.9531C226.008 25.1576 226.814 26.5817 227.367 28.2256C227.921 29.8532 228.197 31.6191 228.197 33.5234V34.085C228.197 35.9893 227.921 37.7552 227.367 39.3828C226.814 41.0104 226.008 42.4346 224.95 43.6553C223.892 44.8597 222.606 45.8037 221.093 46.4873C219.579 47.1546 217.862 47.4883 215.941 47.4883C214.005 47.4883 212.271 47.1546 210.741 46.4873C209.228 45.8037 207.942 44.8597 206.884 43.6553C205.826 42.4346 205.02 41.0104 204.467 39.3828C203.913 37.7552 203.637 35.9893 203.637 34.085ZM209.521 33.5234V34.085C209.521 35.2731 209.643 36.3962 209.887 37.4541C210.131 38.512 210.513 39.4398 211.034 40.2373C211.555 41.0348 212.222 41.6615 213.036 42.1172C213.85 42.5729 214.818 42.8008 215.941 42.8008C217.032 42.8008 217.976 42.5729 218.773 42.1172C219.587 41.6615 220.255 41.0348 220.775 40.2373C221.296 39.4398 221.679 38.512 221.923 37.4541C222.183 36.3962 222.313 35.2731 222.313 34.085V33.5234C222.313 32.3516 222.183 31.2448 221.923 30.2031C221.679 29.1452 221.288 28.2093 220.751 27.3955C220.23 26.5817 219.563 25.9469 218.749 25.4912C217.951 25.0192 216.999 24.7832 215.893 24.7832C214.786 24.7832 213.826 25.0192 213.012 25.4912C212.214 25.9469 211.555 26.5817 211.034 27.3955C210.513 28.2093 210.131 29.1452 209.887 30.2031C209.643 31.2448 209.521 32.3516 209.521 33.5234ZM242.92 42.8008C243.88 42.8008 244.743 42.6136 245.508 42.2393C246.289 41.8486 246.916 41.3115 247.388 40.6279C247.876 39.9443 248.145 39.1549 248.193 38.2598H253.735C253.703 39.9688 253.198 41.5231 252.222 42.9229C251.245 44.3226 249.951 45.4375 248.34 46.2676C246.729 47.0814 244.946 47.4883 242.993 47.4883C240.975 47.4883 239.217 47.1465 237.72 46.4629C236.222 45.763 234.977 44.8027 233.984 43.582C232.992 42.3613 232.243 40.9535 231.738 39.3584C231.25 37.7633 231.006 36.0544 231.006 34.2314V33.377C231.006 31.554 231.25 29.8451 231.738 28.25C232.243 26.6387 232.992 25.2227 233.984 24.002C234.977 22.7812 236.222 21.8291 237.72 21.1455C239.217 20.4456 240.967 20.0957 242.969 20.0957C245.085 20.0957 246.94 20.5189 248.535 21.3652C250.13 22.1953 251.383 23.359 252.295 24.8564C253.223 26.3376 253.703 28.0628 253.735 30.0322H248.193C248.145 29.0557 247.9 28.1768 247.461 27.3955C247.038 26.598 246.436 25.9632 245.654 25.4912C244.889 25.0192 243.97 24.7832 242.896 24.7832C241.707 24.7832 240.723 25.0273 239.941 25.5156C239.16 25.9876 238.55 26.6387 238.11 27.4688C237.671 28.2826 237.354 29.2021 237.158 30.2275C236.979 31.2367 236.89 32.2865 236.89 33.377V34.2314C236.89 35.3219 236.979 36.3799 237.158 37.4053C237.337 38.4307 237.646 39.3503 238.086 40.1641C238.542 40.9616 239.16 41.6045 239.941 42.0928C240.723 42.5648 241.715 42.8008 242.92 42.8008ZM263.551 20.584V47H257.643V20.584H263.551ZM257.252 13.6504C257.252 12.7552 257.545 12.0146 258.131 11.4287C258.733 10.8265 259.563 10.5254 260.621 10.5254C261.663 10.5254 262.485 10.8265 263.087 11.4287C263.689 12.0146 263.99 12.7552 263.99 13.6504C263.99 14.5293 263.689 15.2617 263.087 15.8477C262.485 16.4336 261.663 16.7266 260.621 16.7266C259.563 16.7266 258.733 16.4336 258.131 15.8477C257.545 15.2617 257.252 14.5293 257.252 13.6504ZM280.642 47.4883C278.688 47.4883 276.923 47.1709 275.344 46.5361C273.781 45.8851 272.447 44.9818 271.34 43.8262C270.249 42.6706 269.411 41.3115 268.825 39.749C268.239 38.1865 267.946 36.502 267.946 34.6953V33.7188C267.946 31.6517 268.247 29.7799 268.85 28.1035C269.452 26.4271 270.29 24.9948 271.364 23.8066C272.438 22.6022 273.708 21.6826 275.173 21.0479C276.638 20.4131 278.225 20.0957 279.934 20.0957C281.822 20.0957 283.474 20.4131 284.89 21.0479C286.306 21.6826 287.478 22.5778 288.405 23.7334C289.349 24.8727 290.049 26.2318 290.505 27.8105C290.977 29.3893 291.213 31.1309 291.213 33.0352V35.5498H270.803V31.3262H285.402V30.8623C285.37 29.8044 285.158 28.8115 284.768 27.8838C284.393 26.9561 283.815 26.2074 283.034 25.6377C282.253 25.068 281.211 24.7832 279.909 24.7832C278.933 24.7832 278.062 24.9948 277.297 25.418C276.548 25.8249 275.922 26.4189 275.417 27.2002C274.912 27.9814 274.522 28.9255 274.245 30.0322C273.985 31.1227 273.854 32.3516 273.854 33.7188V34.6953C273.854 35.8509 274.009 36.9251 274.318 37.918C274.644 38.8945 275.116 39.749 275.734 40.4814C276.353 41.2139 277.102 41.7917 277.98 42.2148C278.859 42.6217 279.86 42.8252 280.983 42.8252C282.399 42.8252 283.661 42.5404 284.768 41.9707C285.874 41.401 286.835 40.5954 287.648 39.5537L290.749 42.5566C290.179 43.3867 289.439 44.1842 288.527 44.9492C287.616 45.6979 286.501 46.3083 285.183 46.7803C283.881 47.2523 282.367 47.4883 280.642 47.4883ZM306.912 20.584V24.8809H292.02V20.584H306.912ZM296.316 14.1143H302.2V39.7002C302.2 40.514 302.314 41.1406 302.542 41.5801C302.786 42.0033 303.12 42.2881 303.543 42.4346C303.966 42.5811 304.463 42.6543 305.032 42.6543C305.439 42.6543 305.83 42.6299 306.204 42.5811C306.578 42.5322 306.88 42.4834 307.107 42.4346L307.132 46.9268C306.644 47.0732 306.074 47.2035 305.423 47.3174C304.788 47.4313 304.056 47.4883 303.226 47.4883C301.875 47.4883 300.678 47.2523 299.637 46.7803C298.595 46.292 297.781 45.5026 297.195 44.4121C296.609 43.3216 296.316 41.873 296.316 40.0664V14.1143ZM318.119 44.1191L325.297 20.584H331.596L321 51.0283C320.756 51.6794 320.438 52.3874 320.048 53.1523C319.657 53.9173 319.145 54.6416 318.51 55.3252C317.891 56.0251 317.118 56.5866 316.19 57.0098C315.263 57.4492 314.14 57.6689 312.821 57.6689C312.3 57.6689 311.796 57.6201 311.308 57.5225C310.836 57.4411 310.388 57.3516 309.965 57.2539L309.94 52.7617C310.103 52.778 310.299 52.7943 310.526 52.8105C310.771 52.8268 310.966 52.835 311.112 52.835C312.089 52.835 312.903 52.7129 313.554 52.4688C314.205 52.2409 314.734 51.8665 315.141 51.3457C315.564 50.8249 315.922 50.125 316.215 49.2461L318.119 44.1191ZM314.066 20.584L320.341 40.3594L321.391 46.5605L317.313 47.6104L307.719 20.584H314.066Z" fill="#111315"/>
<defs>
<linearGradient id="paint0_linear_43_12608" x1="174" y1="38" x2="110" y2="38" gradientUnits="userSpaceOnUse">
<stop stop-color="#00BCD4"/>
<stop offset="1" stop-color="#008697"/>
</linearGradient>
</defs>
</svg>
