<svg width="338" height="78" viewBox="0 0 338 78" fill="none" xmlns="http://www.w3.org/2000/svg">
<g filter="url(#filter0_d_169_2)">
<circle cx="144" cy="38" r="32" fill="url(#paint0_linear_169_2)"/>
<path d="M158.61 39.1854L154.496 34.2827L160.428 29.305C161.782 28.169 163.801 28.3456 164.937 29.6994V29.6994C166.073 31.0533 165.896 33.0717 164.542 34.2077L158.61 39.1854Z" fill="white"/>
<path d="M133.925 59.67C132.571 60.806 130.553 60.6294 129.417 59.2756V59.2756C128.281 57.9217 128.457 55.9033 129.811 54.7673L147.951 39.5461L152.065 44.4488L133.925 59.67Z" fill="white"/>
<rect x="127.546" y="13.5004" width="6.4" height="53.6395" rx="3.2" transform="rotate(-39.7759 127.546 13.5004)" fill="white"/>
<rect x="129" y="12" width="7" height="48" rx="3.5" fill="white"/>
<g filter="url(#filter1_d_169_2)">
<path d="M20.8232 48C20.5628 47.4954 20.335 46.6735 20.1396 45.5342C18.2516 47.5036 15.9404 48.4883 13.2061 48.4883C10.5531 48.4883 8.38835 47.7314 6.71191 46.2178C5.03548 44.7041 4.19727 42.8324 4.19727 40.6025C4.19727 37.7868 5.23893 35.6302 7.32227 34.1328C9.42188 32.6191 12.4167 31.8623 16.3066 31.8623H19.9443V30.1289C19.9443 28.7617 19.5618 27.6712 18.7969 26.8574C18.0319 26.0273 16.8682 25.6123 15.3057 25.6123C13.9548 25.6123 12.848 25.9541 11.9854 26.6377C11.1227 27.305 10.6914 28.1595 10.6914 29.2012H4.75879C4.75879 27.7526 5.23893 26.4017 6.19922 25.1484C7.15951 23.8789 8.46159 22.8861 10.1055 22.1699C11.7656 21.4538 13.613 21.0957 15.6475 21.0957C18.7399 21.0957 21.2057 21.877 23.0449 23.4395C24.8841 24.9857 25.8281 27.1667 25.877 29.9824V41.8965C25.877 44.2728 26.2106 46.1689 26.8779 47.585V48H20.8232ZM14.3047 43.7275C15.4766 43.7275 16.5752 43.4427 17.6006 42.873C18.6423 42.3034 19.4235 41.5384 19.9443 40.5781V35.5977H16.7461C14.5488 35.5977 12.8968 35.9801 11.79 36.7451C10.6833 37.5101 10.1299 38.5924 10.1299 39.9922C10.1299 41.1315 10.5042 42.043 11.2529 42.7266C12.0179 43.3939 13.0352 43.7275 14.3047 43.7275ZM54.2227 35.0605C54.2227 39.1458 53.2949 42.4092 51.4395 44.8506C49.584 47.2757 47.0938 48.4883 43.9688 48.4883C41.0716 48.4883 38.7523 47.5361 37.0107 45.6318V58.1562H31.0781V21.584H36.5469L36.791 24.2695C38.5326 22.1536 40.9007 21.0957 43.8955 21.0957C47.1182 21.0957 49.641 22.3001 51.4639 24.709C53.3031 27.1016 54.2227 30.43 54.2227 34.6943V35.0605ZM48.3145 34.5479C48.3145 31.9111 47.7855 29.8197 46.7275 28.2734C45.6859 26.7272 44.1885 25.9541 42.2354 25.9541C39.8102 25.9541 38.0687 26.9551 37.0107 28.957V40.6758C38.085 42.7266 39.8428 43.752 42.2842 43.752C44.1722 43.752 45.6452 42.9951 46.7031 41.4814C47.7773 39.9515 48.3145 37.6403 48.3145 34.5479ZM81.3965 35.0605C81.3965 39.1458 80.4688 42.4092 78.6133 44.8506C76.7578 47.2757 74.2676 48.4883 71.1426 48.4883C68.2454 48.4883 65.9261 47.5361 64.1846 45.6318V58.1562H58.252V21.584H63.7207L63.9648 24.2695C65.7064 22.1536 68.0745 21.0957 71.0693 21.0957C74.292 21.0957 76.8148 22.3001 78.6377 24.709C80.4769 27.1016 81.3965 30.43 81.3965 34.6943V35.0605ZM75.4883 34.5479C75.4883 31.9111 74.9593 29.8197 73.9014 28.2734C72.8597 26.7272 71.3623 25.9541 69.4092 25.9541C66.984 25.9541 65.2425 26.9551 64.1846 28.957V40.6758C65.2588 42.7266 67.0166 43.752 69.458 43.752C71.346 43.752 72.819 42.9951 73.877 41.4814C74.9512 39.9515 75.4883 37.6403 75.4883 34.5479ZM100.245 40.8223C100.245 39.7643 99.8057 38.9587 98.9268 38.4053C98.0641 37.8519 96.6237 37.3636 94.6055 36.9404C92.5872 36.5173 90.9027 35.9801 89.5518 35.3291C86.5895 33.8968 85.1084 31.8216 85.1084 29.1035C85.1084 26.8249 86.0687 24.9206 87.9893 23.3906C89.9098 21.8607 92.3512 21.0957 95.3135 21.0957C98.471 21.0957 101.018 21.877 102.955 23.4395C104.908 25.002 105.885 27.0283 105.885 29.5186H99.9521C99.9521 28.3792 99.529 27.4352 98.6826 26.6865C97.8363 25.9215 96.7132 25.5391 95.3135 25.5391C94.0114 25.5391 92.9453 25.8402 92.1152 26.4424C91.3014 27.0446 90.8945 27.8503 90.8945 28.8594C90.8945 29.7708 91.277 30.4788 92.042 30.9834C92.807 31.488 94.3532 32.0007 96.6807 32.5215C99.0081 33.026 100.831 33.6364 102.149 34.3525C103.484 35.0524 104.469 35.8988 105.104 36.8916C105.755 37.8844 106.08 39.0889 106.08 40.5049C106.08 42.8812 105.095 44.8099 103.126 46.291C101.157 47.7559 98.5768 48.4883 95.3867 48.4883C93.222 48.4883 91.2933 48.0977 89.6006 47.3164C87.9079 46.5352 86.5895 45.4609 85.6455 44.0938C84.7015 42.7266 84.2295 41.2536 84.2295 39.6748H89.9912C90.0726 41.0745 90.6016 42.1569 91.5781 42.9219C92.5547 43.6706 93.8486 44.0449 95.46 44.0449C97.0225 44.0449 98.2106 43.752 99.0244 43.166C99.8382 42.5638 100.245 41.7826 100.245 40.8223Z" fill="white"/>
</g>
<g filter="url(#filter2_d_169_2)">
<path d="M196.847 39.8223C196.847 38.7643 196.407 37.9587 195.528 37.4053C194.666 36.8519 193.225 36.3636 191.207 35.9404C189.189 35.5173 187.504 34.9801 186.153 34.3291C183.191 32.8968 181.71 30.8216 181.71 28.1035C181.71 25.8249 182.67 23.9206 184.591 22.3906C186.511 20.8607 188.953 20.0957 191.915 20.0957C195.073 20.0957 197.62 20.877 199.557 22.4395C201.51 24.002 202.486 26.0283 202.486 28.5186H196.554C196.554 27.3792 196.131 26.4352 195.284 25.6865C194.438 24.9215 193.315 24.5391 191.915 24.5391C190.613 24.5391 189.547 24.8402 188.717 25.4424C187.903 26.0446 187.496 26.8503 187.496 27.8594C187.496 28.7708 187.879 29.4788 188.644 29.9834C189.409 30.488 190.955 31.0007 193.282 31.5215C195.61 32.026 197.433 32.6364 198.751 33.3525C200.086 34.0524 201.07 34.8988 201.705 35.8916C202.356 36.8844 202.682 38.0889 202.682 39.5049C202.682 41.8812 201.697 43.8099 199.728 45.291C197.758 46.7559 195.178 47.4883 191.988 47.4883C189.824 47.4883 187.895 47.0977 186.202 46.3164C184.509 45.5352 183.191 44.4609 182.247 43.0938C181.303 41.7266 180.831 40.2536 180.831 38.6748H186.593C186.674 40.0745 187.203 41.1569 188.18 41.9219C189.156 42.6706 190.45 43.0449 192.062 43.0449C193.624 43.0449 194.812 42.752 195.626 42.166C196.44 41.5638 196.847 40.7826 196.847 39.8223ZM205.759 33.5479C205.759 30.96 206.271 28.6325 207.297 26.5654C208.322 24.4821 209.763 22.887 211.618 21.7803C213.474 20.6572 215.606 20.0957 218.015 20.0957C221.579 20.0957 224.468 21.2432 226.682 23.5381C228.911 25.833 230.116 28.8766 230.295 32.6689L230.319 34.0605C230.319 36.6647 229.815 38.9922 228.806 41.043C227.813 43.0938 226.381 44.6807 224.509 45.8037C222.653 46.9268 220.505 47.4883 218.063 47.4883C214.336 47.4883 211.35 46.2513 209.104 43.7773C206.874 41.2871 205.759 37.9749 205.759 33.8408V33.5479ZM211.691 34.0605C211.691 36.7786 212.253 38.9108 213.376 40.457C214.499 41.987 216.062 42.752 218.063 42.752C220.065 42.752 221.62 41.9707 222.727 40.4082C223.85 38.8457 224.411 36.5589 224.411 33.5479C224.411 30.8786 223.833 28.7627 222.678 27.2002C221.538 25.6377 219.984 24.8564 218.015 24.8564C216.078 24.8564 214.54 25.6296 213.4 27.1758C212.261 28.7057 211.691 31.0007 211.691 34.0605ZM245.188 42.752C246.67 42.752 247.898 42.3206 248.875 41.458C249.852 40.5954 250.372 39.5293 250.438 38.2598H256.028C255.963 39.9036 255.451 41.4417 254.49 42.874C253.53 44.29 252.228 45.4131 250.584 46.2432C248.94 47.0732 247.166 47.4883 245.262 47.4883C241.567 47.4883 238.637 46.292 236.473 43.8994C234.308 41.5068 233.226 38.2028 233.226 33.9873V33.377C233.226 29.3568 234.3 26.1423 236.448 23.7334C238.597 21.3083 241.526 20.0957 245.237 20.0957C248.379 20.0957 250.934 21.0153 252.903 22.8545C254.889 24.6774 255.931 27.0781 256.028 30.0566H250.438C250.372 28.543 249.852 27.2979 248.875 26.3213C247.915 25.3447 246.686 24.8564 245.188 24.8564C243.268 24.8564 241.787 25.5563 240.745 26.9561C239.703 28.3395 239.174 30.4473 239.158 33.2793V34.2314C239.158 37.096 239.671 39.2363 240.696 40.6523C241.738 42.0521 243.235 42.752 245.188 42.752ZM265.819 47H259.887V20.584H265.819V47ZM259.521 13.7236C259.521 12.8122 259.805 12.0553 260.375 11.4531C260.961 10.8509 261.791 10.5498 262.865 10.5498C263.939 10.5498 264.77 10.8509 265.355 11.4531C265.941 12.0553 266.234 12.8122 266.234 13.7236C266.234 14.6188 265.941 15.3675 265.355 15.9697C264.77 16.5557 263.939 16.8486 262.865 16.8486C261.791 16.8486 260.961 16.5557 260.375 15.9697C259.805 15.3675 259.521 14.6188 259.521 13.7236ZM282.935 47.4883C279.175 47.4883 276.123 46.3083 273.779 43.9482C271.452 41.5719 270.288 38.4144 270.288 34.4756V33.7432C270.288 31.1064 270.793 28.7546 271.802 26.6875C272.827 24.6042 274.259 22.9847 276.099 21.8291C277.938 20.6735 279.989 20.0957 282.251 20.0957C285.848 20.0957 288.623 21.2432 290.576 23.5381C292.546 25.833 293.53 29.0801 293.53 33.2793V35.6719H276.27C276.449 37.8529 277.173 39.5781 278.442 40.8477C279.728 42.1172 281.34 42.752 283.276 42.752C285.994 42.752 288.208 41.6533 289.917 39.4561L293.115 42.5078C292.057 44.0866 290.641 45.3154 288.867 46.1943C287.109 47.057 285.132 47.4883 282.935 47.4883ZM282.227 24.8564C280.599 24.8564 279.281 25.4261 278.271 26.5654C277.279 27.7048 276.644 29.2917 276.367 31.3262H287.671V30.8867C287.541 28.901 287.012 27.4036 286.084 26.3945C285.156 25.3691 283.87 24.8564 282.227 24.8564ZM304.591 14.1631V20.584H309.254V24.9785H304.591V39.7246C304.591 40.7337 304.786 41.4661 305.177 41.9219C305.584 42.3613 306.3 42.5811 307.325 42.5811C308.009 42.5811 308.701 42.4997 309.4 42.3369V46.9268C308.049 47.3011 306.747 47.4883 305.494 47.4883C300.937 47.4883 298.658 44.9736 298.658 39.9443V24.9785H294.312V20.584H298.658V14.1631H304.591ZM322.048 38.5039L327.419 20.584H333.742L323.244 51.0039C321.633 55.4473 318.898 57.6689 315.041 57.6689C314.178 57.6689 313.226 57.5225 312.185 57.2295V52.6396L313.308 52.7129C314.805 52.7129 315.928 52.4362 316.677 51.8828C317.442 51.3457 318.044 50.4342 318.483 49.1484L319.338 46.8779L310.061 20.584H316.457L322.048 38.5039Z" fill="white"/>
</g>
</g>
<defs>
<filter id="filter0_d_169_2" x="0.197266" y="6" width="337.545" height="72" filterUnits="userSpaceOnUse" color-interpolation-filters="sRGB">
<feFlood flood-opacity="0" result="BackgroundImageFix"/>
<feColorMatrix in="SourceAlpha" type="matrix" values="0 0 0 0 0 0 0 0 0 0 0 0 0 0 0 0 0 0 127 0" result="hardAlpha"/>
<feOffset dy="4"/>
<feGaussianBlur stdDeviation="2"/>
<feColorMatrix type="matrix" values="0 0 0 0 0 0 0 0 0 0 0 0 0 0 0 0 0 0 0.1 0"/>
<feBlend mode="normal" in2="BackgroundImageFix" result="effect1_dropShadow_169_2"/>
<feBlend mode="normal" in="SourceGraphic" in2="effect1_dropShadow_169_2" result="shape"/>
</filter>
<filter id="filter1_d_169_2" x="0.197266" y="21.0957" width="109.883" height="45.0605" filterUnits="userSpaceOnUse" color-interpolation-filters="sRGB">
<feFlood flood-opacity="0" result="BackgroundImageFix"/>
<feColorMatrix in="SourceAlpha" type="matrix" values="0 0 0 0 0 0 0 0 0 0 0 0 0 0 0 0 0 0 127 0" result="hardAlpha"/>
<feOffset dy="4"/>
<feGaussianBlur stdDeviation="2"/>
<feColorMatrix type="matrix" values="0 0 0 0 0 0 0 0 0 0 0 0 0 0 0 0 0 0 0.25 0"/>
<feBlend mode="normal" in2="BackgroundImageFix" result="effect1_dropShadow_169_2"/>
<feBlend mode="normal" in="SourceGraphic" in2="effect1_dropShadow_169_2" result="shape"/>
</filter>
<filter id="filter2_d_169_2" x="176.831" y="10.5498" width="160.911" height="55.1191" filterUnits="userSpaceOnUse" color-interpolation-filters="sRGB">
<feFlood flood-opacity="0" result="BackgroundImageFix"/>
<feColorMatrix in="SourceAlpha" type="matrix" values="0 0 0 0 0 0 0 0 0 0 0 0 0 0 0 0 0 0 127 0" result="hardAlpha"/>
<feOffset dy="4"/>
<feGaussianBlur stdDeviation="2"/>
<feColorMatrix type="matrix" values="0 0 0 0 0 0 0 0 0 0 0 0 0 0 0 0 0 0 0.25 0"/>
<feBlend mode="normal" in2="BackgroundImageFix" result="effect1_dropShadow_169_2"/>
<feBlend mode="normal" in="SourceGraphic" in2="effect1_dropShadow_169_2" result="shape"/>
</filter>
<linearGradient id="paint0_linear_169_2" x1="176" y1="38" x2="112" y2="38" gradientUnits="userSpaceOnUse">
<stop stop-color="#00BCD4"/>
<stop offset="1" stop-color="#008697"/>
</linearGradient>
</defs>
</svg>
