<svg width="214" height="36" viewBox="0 0 214 36" fill="none" xmlns="http://www.w3.org/2000/svg">
<g filter="url(#filter0_d_604_122)">
<path d="M15.66 23.36C14.02 23.36 12.49 23.09 11.07 22.55C9.67 22.01 8.45 21.25 7.41 20.27C6.39 19.29 5.59 18.14 5.01 16.82C4.45 15.5 4.17 14.06 4.17 12.5C4.17 10.94 4.45 9.5 5.01 8.18C5.59 6.86 6.4 5.71 7.44 4.73C8.48 3.75 9.7 2.99 11.1 2.45C12.5 1.91 14.02 1.64 15.66 1.64C17.32 1.64 18.84 1.91 20.22 2.45C21.62 2.99 22.83 3.75 23.85 4.73C24.89 5.69 25.7 6.83 26.28 8.15C26.86 9.47 27.15 10.92 27.15 12.5C27.15 14.06 26.86 15.51 26.28 16.85C25.7 18.17 24.89 19.32 23.85 20.3C22.83 21.26 21.62 22.01 20.22 22.55C18.84 23.09 17.32 23.36 15.66 23.36ZM22.53 27.83C21.71 27.83 20.93 27.74 20.19 27.56C19.47 27.38 18.75 27.09 18.03 26.69C17.33 26.29 16.59 25.75 15.81 25.07C15.05 24.39 14.22 23.55 13.32 22.55L18.42 21.26C18.96 22 19.46 22.59 19.92 23.03C20.38 23.47 20.82 23.78 21.24 23.96C21.68 24.14 22.14 24.23 22.62 24.23C23.9 24.23 25.04 23.71 26.04 22.67L28.2 25.25C26.78 26.97 24.89 27.83 22.53 27.83ZM15.66 19.22C16.6 19.22 17.46 19.06 18.24 18.74C19.04 18.42 19.74 17.96 20.34 17.36C20.94 16.76 21.4 16.05 21.72 15.23C22.06 14.39 22.23 13.48 22.23 12.5C22.23 11.5 22.06 10.59 21.72 9.77C21.4 8.95 20.94 8.24 20.34 7.64C19.74 7.04 19.04 6.58 18.24 6.26C17.46 5.94 16.6 5.78 15.66 5.78C14.72 5.78 13.85 5.94 13.05 6.26C12.25 6.58 11.55 7.04 10.95 7.64C10.37 8.24 9.91 8.95 9.57 9.77C9.25 10.59 9.09 11.5 9.09 12.5C9.09 13.48 9.25 14.39 9.57 15.23C9.91 16.05 10.37 16.76 10.95 17.36C11.55 17.96 12.25 18.42 13.05 18.74C13.85 19.06 14.72 19.22 15.66 19.22ZM34.8595 23V5.96H28.1395V2H46.4395V5.96H39.7195V23H34.8595ZM57.8041 23V19.85L57.5041 19.16V13.52C57.5041 12.52 57.1941 11.74 56.5741 11.18C55.9741 10.62 55.0441 10.34 53.7841 10.34C52.9241 10.34 52.0741 10.48 51.2341 10.76C50.4141 11.02 49.7141 11.38 49.1341 11.84L47.4541 8.57C48.3341 7.95 49.3941 7.47 50.6341 7.13C51.8741 6.79 53.1341 6.62 54.4141 6.62C56.8741 6.62 58.7841 7.2 60.1441 8.36C61.5041 9.52 62.1841 11.33 62.1841 13.79V23H57.8041ZM52.8841 23.24C51.6241 23.24 50.5441 23.03 49.6441 22.61C48.7441 22.17 48.0541 21.58 47.5741 20.84C47.0941 20.1 46.8541 19.27 46.8541 18.35C46.8541 17.39 47.0841 16.55 47.5441 15.83C48.0241 15.11 48.7741 14.55 49.7941 14.15C50.8141 13.73 52.1441 13.52 53.7841 13.52H58.0741V16.25H54.2941C53.1941 16.25 52.4341 16.43 52.0141 16.79C51.6141 17.15 51.4141 17.6 51.4141 18.14C51.4141 18.74 51.6441 19.22 52.1041 19.58C52.5841 19.92 53.2341 20.09 54.0541 20.09C54.8341 20.09 55.5341 19.91 56.1541 19.55C56.7741 19.17 57.2241 18.62 57.5041 17.9L58.2241 20.06C57.8841 21.1 57.2641 21.89 56.3641 22.43C55.4641 22.97 54.3041 23.24 52.8841 23.24ZM52.1641 4.79L56.2141 0.469999H61.2541L55.8241 4.79H52.1641ZM66.7498 23V2H75.8398C77.7198 2 79.3398 2.31 80.6998 2.93C82.0598 3.53 83.1098 4.4 83.8498 5.54C84.5898 6.68 84.9598 8.04 84.9598 9.62C84.9598 11.18 84.5898 12.53 83.8498 13.67C83.1098 14.79 82.0598 15.65 80.6998 16.25C79.3398 16.85 77.7198 17.15 75.8398 17.15H69.4498L71.6098 15.02V23H66.7498ZM80.0998 23L74.8498 15.38H80.0398L85.3498 23H80.0998ZM71.6098 15.56L69.4498 13.28H75.5698C77.0698 13.28 78.1898 12.96 78.9298 12.32C79.6698 11.66 80.0398 10.76 80.0398 9.62C80.0398 8.46 79.6698 7.56 78.9298 6.92C78.1898 6.28 77.0698 5.96 75.5698 5.96H69.4498L71.6098 3.65V15.56ZM96.1603 23.24C94.4403 23.24 92.9103 22.88 91.5703 22.16C90.2503 21.44 89.2003 20.46 88.4203 19.22C87.6603 17.96 87.2803 16.53 87.2803 14.93C87.2803 13.31 87.6603 11.88 88.4203 10.64C89.2003 9.38 90.2503 8.4 91.5703 7.7C92.9103 6.98 94.4403 6.62 96.1603 6.62C97.8603 6.62 99.3803 6.98 100.72 7.7C102.06 8.4 103.11 9.37 103.87 10.61C104.63 11.85 105.01 13.29 105.01 14.93C105.01 16.53 104.63 17.96 103.87 19.22C103.11 20.46 102.06 21.44 100.72 22.16C99.3803 22.88 97.8603 23.24 96.1603 23.24ZM96.1603 19.4C96.9403 19.4 97.6403 19.22 98.2603 18.86C98.8803 18.5 99.3703 17.99 99.7303 17.33C100.09 16.65 100.27 15.85 100.27 14.93C100.27 13.99 100.09 13.19 99.7303 12.53C99.3703 11.87 98.8803 11.36 98.2603 11C97.6403 10.64 96.9403 10.46 96.1603 10.46C95.3803 10.46 94.6803 10.64 94.0603 11C93.4403 11.36 92.9403 11.87 92.5603 12.53C92.2003 13.19 92.0203 13.99 92.0203 14.93C92.0203 15.85 92.2003 16.65 92.5603 17.33C92.9403 17.99 93.4403 18.5 94.0603 18.86C94.6803 19.22 95.3803 19.4 96.1603 19.4ZM108.139 23V0.739999H112.819V23H108.139ZM127.062 23V19.85L126.762 19.16V13.52C126.762 12.52 126.452 11.74 125.832 11.18C125.232 10.62 124.302 10.34 123.042 10.34C122.182 10.34 121.332 10.48 120.492 10.76C119.672 11.02 118.972 11.38 118.392 11.84L116.712 8.57C117.592 7.95 118.652 7.47 119.892 7.13C121.132 6.79 122.392 6.62 123.672 6.62C126.132 6.62 128.042 7.2 129.402 8.36C130.762 9.52 131.442 11.33 131.442 13.79V23H127.062ZM122.142 23.24C120.882 23.24 119.802 23.03 118.902 22.61C118.002 22.17 117.312 21.58 116.832 20.84C116.352 20.1 116.112 19.27 116.112 18.35C116.112 17.39 116.342 16.55 116.802 15.83C117.282 15.11 118.032 14.55 119.052 14.15C120.072 13.73 121.402 13.52 123.042 13.52H127.332V16.25H123.552C122.452 16.25 121.692 16.43 121.272 16.79C120.872 17.15 120.672 17.6 120.672 18.14C120.672 18.74 120.902 19.22 121.362 19.58C121.842 19.92 122.492 20.09 123.312 20.09C124.092 20.09 124.792 19.91 125.412 19.55C126.032 19.17 126.482 18.62 126.762 17.9L127.482 20.06C127.142 21.1 126.522 21.89 125.622 22.43C124.722 22.97 123.562 23.24 122.142 23.24ZM145.488 6.62C146.768 6.62 147.908 6.88 148.908 7.4C149.928 7.9 150.728 8.68 151.308 9.74C151.888 10.78 152.178 12.12 152.178 13.76V23H147.498V14.48C147.498 13.18 147.208 12.22 146.628 11.6C146.068 10.98 145.268 10.67 144.228 10.67C143.488 10.67 142.818 10.83 142.218 11.15C141.638 11.45 141.178 11.92 140.838 12.56C140.518 13.2 140.358 14.02 140.358 15.02V23H135.678V6.86H140.148V11.33L139.308 9.98C139.888 8.9 140.718 8.07 141.798 7.49C142.878 6.91 144.108 6.62 145.488 6.62ZM163.467 23.24C161.947 23.24 160.577 22.9 159.357 22.22C158.137 21.52 157.167 20.55 156.447 19.31C155.747 18.07 155.397 16.61 155.397 14.93C155.397 13.23 155.747 11.76 156.447 10.52C157.167 9.28 158.137 8.32 159.357 7.64C160.577 6.96 161.947 6.62 163.467 6.62C164.827 6.62 166.017 6.92 167.037 7.52C168.057 8.12 168.847 9.03 169.407 10.25C169.967 11.47 170.247 13.03 170.247 14.93C170.247 16.81 169.977 18.37 169.437 19.61C168.897 20.83 168.117 21.74 167.097 22.34C166.097 22.94 164.887 23.24 163.467 23.24ZM164.277 19.4C165.037 19.4 165.727 19.22 166.347 18.86C166.967 18.5 167.457 17.99 167.817 17.33C168.197 16.65 168.387 15.85 168.387 14.93C168.387 13.99 168.197 13.19 167.817 12.53C167.457 11.87 166.967 11.36 166.347 11C165.727 10.64 165.037 10.46 164.277 10.46C163.497 10.46 162.797 10.64 162.177 11C161.557 11.36 161.057 11.87 160.677 12.53C160.317 13.19 160.137 13.99 160.137 14.93C160.137 15.85 160.317 16.65 160.677 17.33C161.057 17.99 161.557 18.5 162.177 18.86C162.797 19.22 163.497 19.4 164.277 19.4ZM168.507 23V19.7L168.597 14.9L168.297 10.13V0.739999H172.977V23H168.507ZM184.988 23.24C183.268 23.24 181.738 22.88 180.398 22.16C179.078 21.44 178.028 20.46 177.248 19.22C176.488 17.96 176.108 16.53 176.108 14.93C176.108 13.31 176.488 11.88 177.248 10.64C178.028 9.38 179.078 8.4 180.398 7.7C181.738 6.98 183.268 6.62 184.988 6.62C186.688 6.62 188.208 6.98 189.548 7.7C190.888 8.4 191.938 9.37 192.698 10.61C193.458 11.85 193.838 13.29 193.838 14.93C193.838 16.53 193.458 17.96 192.698 19.22C191.938 20.46 190.888 21.44 189.548 22.16C188.208 22.88 186.688 23.24 184.988 23.24ZM184.988 19.4C185.768 19.4 186.468 19.22 187.088 18.86C187.708 18.5 188.198 17.99 188.558 17.33C188.918 16.65 189.098 15.85 189.098 14.93C189.098 13.99 188.918 13.19 188.558 12.53C188.198 11.87 187.708 11.36 187.088 11C186.468 10.64 185.768 10.46 184.988 10.46C184.208 10.46 183.508 10.64 182.888 11C182.268 11.36 181.768 11.87 181.388 12.53C181.028 13.19 180.848 13.99 180.848 14.93C180.848 15.85 181.028 16.65 181.388 17.33C181.768 17.99 182.268 18.5 182.888 18.86C183.508 19.22 184.208 19.4 184.988 19.4ZM200.028 15.71C200.028 15.01 200.138 14.39 200.358 13.85C200.598 13.31 200.888 12.83 201.228 12.41C201.588 11.99 201.968 11.6 202.368 11.24C202.768 10.88 203.138 10.54 203.478 10.22C203.838 9.88 204.128 9.53 204.348 9.17C204.588 8.81 204.708 8.41 204.708 7.97C204.708 7.25 204.408 6.67 203.808 6.23C203.228 5.79 202.448 5.57 201.468 5.57C200.528 5.57 199.688 5.77 198.948 6.17C198.208 6.55 197.598 7.09 197.118 7.79L193.488 5.66C194.288 4.44 195.398 3.47 196.818 2.75C198.238 2.01 199.958 1.64 201.978 1.64C203.478 1.64 204.798 1.86 205.938 2.3C207.078 2.72 207.968 3.34 208.608 4.16C209.268 4.98 209.598 5.99 209.598 7.19C209.598 7.97 209.478 8.66 209.238 9.26C208.998 9.86 208.688 10.38 208.308 10.82C207.928 11.26 207.518 11.67 207.078 12.05C206.658 12.43 206.258 12.8 205.878 13.16C205.498 13.52 205.178 13.9 204.918 14.3C204.678 14.7 204.558 15.17 204.558 15.71H200.028ZM202.308 23.24C201.468 23.24 200.778 22.97 200.238 22.43C199.698 21.89 199.428 21.25 199.428 20.51C199.428 19.75 199.698 19.12 200.238 18.62C200.778 18.1 201.468 17.84 202.308 17.84C203.168 17.84 203.858 18.1 204.378 18.62C204.918 19.12 205.188 19.75 205.188 20.51C205.188 21.25 204.918 21.89 204.378 22.43C203.858 22.97 203.168 23.24 202.308 23.24Z" fill="url(#paint0_linear_604_122)"/>
</g>
<defs>
<filter id="filter0_d_604_122" x="0.170044" y="0.469971" width="213.427" height="35.36" filterUnits="userSpaceOnUse" color-interpolation-filters="sRGB">
<feFlood flood-opacity="0" result="BackgroundImageFix"/>
<feColorMatrix in="SourceAlpha" type="matrix" values="0 0 0 0 0 0 0 0 0 0 0 0 0 0 0 0 0 0 127 0" result="hardAlpha"/>
<feOffset dy="4"/>
<feGaussianBlur stdDeviation="2"/>
<feColorMatrix type="matrix" values="0 0 0 0 0 0 0 0 0 0 0 0 0 0 0 0 0 0 0.25 0"/>
<feBlend mode="normal" in2="BackgroundImageFix" result="effect1_dropShadow_604_122"/>
<feBlend mode="normal" in="SourceGraphic" in2="effect1_dropShadow_604_122" result="shape"/>
</filter>
<linearGradient id="paint0_linear_604_122" x1="3" y1="12.2194" x2="141.831" y2="12.1199" gradientUnits="userSpaceOnUse">
<stop stop-color="#ED864F"/>
<stop offset="1" stop-color="#FD2A3C"/>
</linearGradient>
</defs>
</svg>
