<svg width="273" height="324" viewBox="0 0 273 324" fill="none" xmlns="http://www.w3.org/2000/svg">
<g opacity="0.5" clip-path="url(#clip0_30_3417)">
<path opacity="0.1" d="M265.921 102.286C262.292 92.0757 257.388 82.6036 251.379 74.2031L49.6295 71.7953L215.737 43.5206C205.007 38.3394 193.584 35.5926 182.035 35.4171C166.145 20.0169 146.577 11.2466 126.244 10.4112C105.91 9.57581 85.897 16.72 69.1831 30.7807C55.8249 22.4604 41.0171 18.1381 25.9982 18.1752C-18.8272 18.1752 -56.18 55.8042 -64.5602 105.704L265.921 102.286Z" fill="#111315"/>
<path opacity="0.1" d="M273 144.136C273.01 130.604 270.876 117.197 266.714 104.641L-82.9442 149.122C-86.5399 157.024 -89.2916 165.448 -91.1327 174.191L17.1441 193.747L-93.6034 208.007C-90.2722 264.495 -50.3142 309.103 -1.49871 309.103C23.0703 309.103 45.394 297.797 61.9392 279.361C78.5316 298.143 101.07 309.693 125.905 309.693C162.754 309.693 194.553 284.267 209.364 247.501C239.076 236.093 262.139 207.375 270.056 171.473L133.119 145.753H272.98C272.98 145.216 273 144.678 273 144.136Z" fill="#111315"/>
<path opacity="0.1" d="M200.217 299.879C208.296 299.879 214.846 298.788 214.846 297.442C214.846 296.097 208.296 295.007 200.217 295.007C192.138 295.007 185.588 296.097 185.588 297.442C185.588 298.788 192.138 299.879 200.217 299.879Z" fill="#111315"/>
<path opacity="0.1" d="M246.992 310.337C255.072 310.337 261.621 309.246 261.621 307.9C261.621 306.555 255.072 305.464 246.992 305.464C238.913 305.464 232.363 306.555 232.363 307.9C232.363 309.246 238.913 310.337 246.992 310.337Z" fill="#111315"/>
</g>
<defs>
<clipPath id="clip0_30_3417">
<rect width="367" height="324" fill="white" transform="translate(-94)"/>
</clipPath>
</defs>
</svg>
