<svg width="292" height="268" viewBox="0 0 292 268" fill="none" xmlns="http://www.w3.org/2000/svg">
<path fill-rule="evenodd" clip-rule="evenodd" d="M27.6562 162.78C22.3232 153.107 25.8415 140.942 35.5145 135.609L189.602 50.6563C199.275 45.3233 211.44 48.8415 216.773 58.5145L230.646 83.6778C221.236 89.1895 217.882 101.232 223.179 110.839C228.476 120.446 240.449 124.038 250.132 119.022L264.678 145.405C270.011 155.078 266.493 167.243 256.82 172.576L102.732 257.528C93.0591 262.861 80.8944 259.343 75.5614 249.67L61.0136 223.284C61.2198 223.179 61.4249 223.07 61.6289 222.958C71.3924 217.575 74.9435 205.296 69.5607 195.533C64.1778 185.769 51.8992 182.218 42.1358 187.601C41.9318 187.714 41.7305 187.829 41.5319 187.948L27.6562 162.78Z" fill="black" fill-opacity="0.1"/>
<path fill-rule="evenodd" clip-rule="evenodd" d="M27.6562 121.78C22.3232 112.107 25.8415 99.9422 35.5145 94.6092L189.602 9.65626C199.275 4.32326 211.44 7.84152 216.773 17.5145L230.646 42.6778C221.236 48.1895 217.882 60.2316 223.179 69.8386C228.476 79.4456 240.449 83.0378 250.132 78.0223L264.678 104.405C270.011 114.078 266.493 126.243 256.82 131.576L102.732 216.528C93.0591 221.861 80.8944 218.343 75.5614 208.67L61.0136 182.284C61.2198 182.179 61.4249 182.07 61.6289 181.958C71.3924 176.575 74.9435 164.296 69.5607 154.533C64.1778 144.769 51.8992 141.218 42.1358 146.601C41.9318 146.714 41.7305 146.829 41.5319 146.948L27.6562 121.78Z" fill="url(#paint0_linear_1_6280)"/>
<path d="M157.054 43.5713L209.471 139.295" stroke="white" stroke-width="3" stroke-linecap="round" stroke-linejoin="bevel" stroke-dasharray="6 6"/>
<line x1="79.8561" y1="108.635" x2="130.087" y2="79.9629" stroke="black" stroke-opacity="0.2" stroke-width="20" stroke-linecap="round"/>
<line x1="96.0503" y1="138.215" x2="127.918" y2="120.234" stroke="black" stroke-opacity="0.2" stroke-width="20" stroke-linecap="round"/>
<defs>
<linearGradient id="paint0_linear_1_6280" x1="180.315" y1="173.755" x2="113.097" y2="51.8357" gradientUnits="userSpaceOnUse">
<stop stop-color="#FD2A3C"/>
<stop offset="1" stop-color="#ED894E"/>
</linearGradient>
</defs>
</svg>
