<svg width="295" height="228" viewBox="0 0 295 228" fill="none" xmlns="http://www.w3.org/2000/svg">
<g clip-path="url(#clip0_34_3406)">
<path d="M225.828 207.541C234.503 207.541 241.536 193.212 241.536 175.535C241.536 157.859 234.503 143.529 225.828 143.529C217.153 143.529 210.12 157.859 210.12 175.535C210.12 193.212 217.153 207.541 225.828 207.541Z" fill="#3F3D56"/>
<path d="M224.377 227.924C230.669 190.23 224.441 152.673 224.377 152.299L223.153 152.506C223.217 152.878 229.409 190.238 223.153 227.721L224.377 227.924Z" fill="#CACACA"/>
<path d="M211.999 168.653L211.413 169.746L225.617 177.333L226.203 176.24L211.999 168.653Z" fill="#CACACA"/>
<path d="M240.608 172.454L226.406 180.045L226.992 181.138L241.194 173.547L240.608 172.454Z" fill="#CACACA"/>
<path d="M263.569 187.481C280.537 187.481 294.292 159.454 294.292 124.881C294.292 90.3084 280.537 62.2815 263.569 62.2815C246.601 62.2815 232.847 90.3084 232.847 124.881C232.847 159.454 246.601 187.481 263.569 187.481Z" fill="#8371FD"/>
<path d="M260.147 227.25C272.435 153.623 260.271 80.2646 260.147 79.5322L258.923 79.7392C259.047 80.4698 271.175 153.631 258.923 227.047L260.147 227.25Z" fill="#CACACA"/>
<path d="M236.241 111.943L235.655 113.036L263.437 127.875L264.023 126.782L236.241 111.943Z" fill="#CACACA"/>
<path d="M292.757 119.376L264.979 134.224L265.565 135.317L293.343 120.469L292.757 119.376Z" fill="#CACACA"/>
<path d="M192.216 227.447H28.8013C28.2002 227.446 27.624 227.207 27.1991 226.783C26.7741 226.359 26.535 225.783 26.5343 225.183V122.066C26.535 121.466 26.774 120.891 27.199 120.466C27.624 120.042 28.2002 119.803 28.8013 119.802H192.216C192.817 119.803 193.393 120.042 193.818 120.466C194.243 120.891 194.482 121.466 194.483 122.066V225.183C194.482 225.783 194.243 226.359 193.818 226.783C193.393 227.207 192.817 227.446 192.216 227.447V227.447Z" fill="#E4E4E4"/>
<path d="M43.8295 132.298C43.5719 132.298 43.3249 132.401 43.1428 132.583C42.9606 132.764 42.8582 133.011 42.8579 133.268V213.981C42.8582 214.238 42.9606 214.485 43.1428 214.667C43.3249 214.849 43.5719 214.951 43.8295 214.951H177.188C177.446 214.951 177.693 214.849 177.875 214.667C178.057 214.485 178.159 214.238 178.16 213.981V133.268C178.159 133.011 178.057 132.764 177.875 132.583C177.693 132.401 177.446 132.298 177.188 132.298H43.8295Z" fill="white"/>
<path d="M178.483 153.087V147.972H159.624V131.975H154.502V147.972H120.927V131.975H115.805V147.972H64.0194V131.975H58.8977V147.972H40.9905V153.087H58.8977V172.977H40.9905V178.091H58.8977V199.402H40.9905V204.517H86.4979V215.275H91.6196V204.517H115.805V215.275H120.927V204.517H178.483V199.402H120.927V178.091H178.483V172.977H159.624V153.087H178.483ZM115.805 153.087V159.338H64.0194V153.087H115.805ZM64.0194 164.452H115.805V172.977H64.0194V164.452ZM64.0194 199.402V178.091H86.4979V199.402H64.0194ZM115.805 199.402H91.6196V178.091H115.805V199.402ZM154.502 172.977H120.927V153.087H154.502V172.977Z" fill="#E6E6E6"/>
<path d="M118.366 182.716C121.98 182.716 124.91 179.79 124.91 176.181C124.91 172.571 121.98 169.646 118.366 169.646C114.752 169.646 111.822 172.571 111.822 176.181C111.822 179.79 114.752 182.716 118.366 182.716Z" fill="#C95F95"/>
<path d="M294.872 228H0V227.294H295L294.872 228Z" fill="#CACACA"/>
<path d="M119.151 137.358C141.446 137.358 159.521 119.309 159.521 97.0436C159.521 74.7786 141.446 56.7292 119.151 56.7292C96.8549 56.7292 78.7806 74.7786 78.7806 97.0436C78.7806 119.309 96.8549 137.358 119.151 137.358Z" fill="#C95F95"/>
<path d="M119.545 162.578L106.791 140.822L94.0375 119.065L119.282 118.913L144.527 118.761L132.036 140.67L119.545 162.578Z" fill="#C95F95"/>
<path d="M119.475 111.254C127.474 111.254 133.959 104.778 133.959 96.7899C133.959 88.8015 127.474 82.3257 119.475 82.3257C111.475 82.3257 104.99 88.8015 104.99 96.7899C104.99 104.778 111.475 111.254 119.475 111.254Z" fill="white"/>
<path d="M118.217 0.207149C118.217 0.207149 109.578 -2.22283 107.023 9.56255C104.468 21.3479 106.091 19.863 106.091 19.863L125.375 17.6153C125.375 17.6153 131.174 3.79136 118.217 0.207149Z" fill="#2F2E41"/>
<path d="M105.654 51.9099C105.654 51.9099 92.6218 52.5123 94.8787 57.6208C95.0382 57.982 95.1868 58.3203 95.3243 58.6358C96.9375 62.336 98.7944 65.9254 100.883 69.3804L108.893 82.6335L111.807 81.0165L103.605 59.7244L110.978 59.1234L105.654 51.9099Z" fill="#FFB6B6"/>
<path d="M140.016 57.3205L144.229 66.4857C144.229 66.4857 147.388 69.641 150.849 82.262C154.309 94.883 155.062 94.4323 155.062 94.4323L151.641 95.5699L137.609 70.0917L130.688 61.3772L132.794 56.7195L140.016 57.3205Z" fill="#FFB6B6"/>
<path d="M134.9 46.8028L140.954 58.0546C140.954 58.0546 154.679 84.9868 153.261 84.8973C151.666 84.7968 147.187 86.6529 145.812 88.4548C145.148 89.3245 135.449 68.0802 132.042 63.3303L124.669 57.6208C124.669 57.6208 103.737 61.1391 103.711 59.995C103.699 59.4346 110.641 72.8803 109.217 72.2845C107.593 71.6057 103.775 74.9085 102.092 74.2249C101.397 73.9429 96.4899 62.0611 94.5034 57.1923C94.2542 56.5846 94.2413 55.9058 94.4671 55.2889C94.6929 54.6721 95.1413 54.1618 95.7243 53.8578C97.2172 53.0825 117.961 48.3524 117.961 48.3524L117.598 46.5023L119.102 43.4973L134.9 46.8028Z" fill="#2F2E41"/>
<path d="M122.487 13.6341C123.006 10.4397 120.834 7.42981 117.635 6.91143C114.436 6.39305 111.422 8.56245 110.903 11.7569C110.384 14.9514 112.556 17.9612 115.755 18.4796C118.954 18.998 121.968 16.8286 122.487 13.6341Z" fill="#FFB6B6"/>
<path d="M135.449 47.7057C135.773 48.6764 133.674 49.234 130.749 48.6886C128.219 48.2168 125.449 47.6564 123.264 47.2026C120.924 46.7158 119.253 46.3522 119.253 46.3522C119.253 46.3522 118.651 50.1085 116.695 49.6577C115.01 49.2701 109.974 31.7043 108.612 26.8497C108.513 26.4953 108.532 26.118 108.667 25.7755C108.802 25.4329 109.046 25.1438 109.36 24.9521L116.277 20.7345C116.277 20.7345 121.043 19.0998 122.781 19.0532C124.519 19.0067 127.528 18.5559 127.528 18.5559C127.528 18.5559 130.989 18.8564 131.59 21.4107C132.192 23.9649 134.704 39.1093 134.75 42.7462C134.801 46.7355 134.477 44.7951 135.449 47.7057Z" fill="#CACACA"/>
<path d="M118.889 5.16895C118.889 5.16895 116.455 11.6084 110.494 14.2814L109.521 8.57091L118.889 5.16895Z" fill="#2F2E41"/>
<path d="M122.412 12.02C122.87 12.02 123.24 11.3137 123.24 10.4424C123.24 9.57107 122.87 8.86475 122.412 8.86475C121.955 8.86475 121.585 9.57107 121.585 10.4424C121.585 11.3137 121.955 12.02 122.412 12.02Z" fill="#FFB6B6"/>
<path d="M114.233 84.136L102.601 89.4762L102.533 89.3292C101.981 88.1302 101.929 86.7612 102.388 85.5236C102.846 84.2859 103.778 83.2809 104.979 82.7295L104.979 82.7294L112.084 79.4678L114.233 84.136Z" fill="#2F2E41"/>
<path d="M149.907 94.8049L157.042 91.6109L157.043 91.6107C158.248 91.071 159.62 91.0318 160.855 91.5016C162.09 91.9715 163.087 92.9119 163.628 94.1161L163.694 94.2637L152.012 99.4933L149.907 94.8049Z" fill="#2F2E41"/>
<path opacity="0.2" d="M130.591 33.7991L129.229 48.7602L131.65 48.8743L130.591 33.7991Z" fill="#111315"/>
<path d="M121.096 61.7487C121.384 61.427 121.599 61.0459 121.724 60.6325C121.849 60.219 121.882 59.7832 121.82 59.3557C121.759 58.9281 121.604 58.5193 121.367 58.158C121.13 57.7967 120.816 57.4918 120.448 57.2645L115.215 30.8662L109.206 33.1621L116.239 58.3889C115.898 59.0313 115.805 59.7764 115.977 60.4831C116.149 61.1897 116.574 61.8088 117.173 62.2229C117.772 62.637 118.502 62.8175 119.225 62.7301C119.948 62.6427 120.613 62.2935 121.096 61.7487Z" fill="#FFB6B6"/>
<path d="M116.539 35.3151L109.941 36.4757C109.753 36.5087 109.56 36.501 109.376 36.4529C109.191 36.4049 109.019 36.3177 108.872 36.1973C108.724 36.0769 108.604 35.9262 108.52 35.7553C108.436 35.5845 108.389 35.3975 108.384 35.2072L108.202 28.539C108.038 27.5787 108.262 26.5927 108.825 25.7973C109.389 25.0018 110.244 24.4618 111.206 24.2956C112.167 24.1295 113.155 24.3507 113.953 24.9109C114.751 25.4711 115.294 26.3244 115.463 27.2838L117.568 33.5919C117.628 33.7726 117.648 33.964 117.628 34.1533C117.607 34.3426 117.546 34.5252 117.449 34.6887C117.351 34.8522 117.219 34.9928 117.062 35.1009C116.905 35.209 116.727 35.2821 116.539 35.3151H116.539Z" fill="#CACACA"/>
<path d="M126.155 61.2842C126.532 61.0718 126.857 60.7796 127.109 60.4281C127.36 60.0765 127.531 59.6743 127.61 59.2495C127.689 58.8248 127.673 58.388 127.565 57.9699C127.456 57.5518 127.257 57.1625 126.982 56.8295L130.502 30.1494L124.072 30.3998L122.634 56.5467C122.104 57.0459 121.777 57.7218 121.713 58.4462C121.649 59.1706 121.853 59.8933 122.287 60.4772C122.721 61.0612 123.355 61.4659 124.068 61.6146C124.78 61.7633 125.523 61.6458 126.155 61.2842V61.2842Z" fill="#FFB6B6"/>
<path d="M130.327 34.7874L123.704 33.7737C123.516 33.7449 123.336 33.6758 123.176 33.5713C123.017 33.4667 122.882 33.329 122.781 33.1677C122.68 33.0064 122.614 32.8252 122.59 32.6364C122.565 32.4477 122.581 32.2558 122.637 32.0739L124.606 25.6995C124.759 24.7374 125.288 23.8753 126.077 23.3022C126.865 22.729 127.85 22.4916 128.813 22.642C129.777 22.7924 130.642 23.3183 131.218 24.1045C131.794 24.8906 132.034 25.8727 131.886 26.8356L131.854 33.4846C131.853 33.675 131.811 33.8629 131.731 34.0356C131.651 34.2083 131.534 34.3617 131.389 34.4853C131.244 34.6089 131.074 34.6999 130.891 34.7521C130.708 34.8042 130.515 34.8162 130.327 34.7874Z" fill="#CACACA"/>
</g>
<defs>
<clipPath id="clip0_34_3406">
<rect width="295" height="228" fill="white"/>
</clipPath>
</defs>
</svg>
