<svg width="610" height="389" viewBox="0 0 610 389" fill="none" xmlns="http://www.w3.org/2000/svg">
<g clip-path="url(#clip0_664_3479)">
<path d="M604 229.5H235C232.515 229.5 230.5 227.485 230.5 225V14C230.5 11.5147 232.515 9.5 235 9.5H604C606.485 9.5 608.5 11.5147 608.5 14V225C608.5 227.485 606.485 229.5 604 229.5Z" fill="white" fill-opacity="0.75" stroke="#F9F9F9" stroke-width="3"/>
<rect x="245.5" y="40.5" width="99" height="168" rx="5.5" stroke="#909090" stroke-opacity="0.5"/>
<rect x="359.5" y="40.5" width="113" height="168" rx="5.5" stroke="#909090" stroke-opacity="0.5"/>
<rect x="485.5" y="40.5" width="113" height="168" rx="5.5" stroke="#909090" stroke-opacity="0.5"/>
<path d="M210.115 364.147L191.439 374.998L209.85 370.552C209.709 372.072 209.516 373.567 209.258 375.03C209.187 375.436 209.11 375.835 209.026 376.235C208.397 379.594 207.257 382.836 205.645 385.849C205.336 386.403 205.027 386.944 204.705 387.466C204.396 387.995 204.074 388.504 203.746 389H154.244C153.831 388.504 153.439 387.988 153.078 387.466C149.548 382.495 148.118 376.332 149.098 370.313C149.278 369.089 149.536 367.877 149.871 366.685C150.195 365.468 150.589 364.269 151.049 363.096C151.854 361.024 152.803 359.01 153.889 357.071C156.156 352.986 159.692 349.3 163.858 346.027C165.875 344.452 167.978 342.989 170.156 341.645C170.568 341.381 170.987 341.123 171.412 340.872C172.062 340.485 172.713 340.105 173.37 339.738C174.677 338.99 175.997 338.282 177.317 337.611C177.665 337.431 178.006 337.257 178.347 337.09C181.213 335.659 184.066 334.377 186.783 333.249C187.125 333.107 187.472 332.966 187.814 332.83C193.22 330.617 198.75 328.722 204.377 327.153C204.377 327.153 204.396 327.205 204.428 327.314C204.512 327.611 204.724 328.326 205.014 329.383C205.819 332.315 207.236 337.908 208.376 344.661C208.44 345.028 208.498 345.402 208.562 345.776C209.514 351.487 210.042 357.262 210.14 363.051C210.147 363.412 210.147 363.766 210.147 364.127L210.115 364.147Z" fill="black" fill-opacity="0.15"/>
<path d="M205.742 326.496C205.735 326.515 205.671 326.831 205.523 327.411C205.4 327.894 205.233 328.558 205.014 329.383C204.261 332.263 202.921 337.09 201.015 342.902C200.905 343.237 200.789 343.585 200.674 343.933C199.347 347.909 197.769 352.303 195.947 356.82C195.49 357.954 195.032 359.069 194.562 360.158C194.421 360.5 194.279 360.835 194.131 361.163C192.135 365.79 190.08 370.023 187.968 373.864L187.434 374.824C184.979 379.279 182.136 383.51 178.94 387.466C178.508 387.995 178.07 388.504 177.626 389H176.132C176.583 388.504 177.034 387.988 177.471 387.466C180.852 383.373 183.842 378.972 186.403 374.321C186.584 374.006 186.764 373.69 186.938 373.368C189.211 369.237 191.278 364.92 193.126 360.641C193.274 360.313 193.416 359.978 193.558 359.636C195.973 353.978 198.001 348.418 199.637 343.52C199.753 343.172 199.869 342.824 199.978 342.483C202.361 335.253 203.855 329.583 204.428 327.314C204.505 326.979 204.57 326.715 204.615 326.535C204.66 326.367 204.679 326.271 204.686 326.251L205.207 326.374H205.214L205.742 326.496Z" fill="black" fill-opacity="0.15"/>
<path d="M209.361 344.745C209.033 344.725 208.704 344.693 208.376 344.661C205.856 344.399 203.381 343.808 201.015 342.902C200.674 342.766 200.326 342.631 199.978 342.483C199.037 342.078 198.116 341.624 197.222 341.123C193.522 339.074 190.312 336.245 187.814 332.83C187.73 332.721 187.646 332.605 187.569 332.495C187.234 332.637 186.893 332.779 186.545 332.92C186.622 333.03 186.7 333.139 186.783 333.249C189.39 336.892 192.776 339.908 196.694 342.077C197.649 342.609 198.631 343.091 199.637 343.52C199.978 343.662 200.326 343.804 200.674 343.933C203.209 344.899 205.862 345.519 208.562 345.776C208.884 345.808 209.213 345.834 209.535 345.853C209.477 345.473 209.419 345.105 209.361 344.745Z" fill="black" fill-opacity="0.15"/>
<path d="M210.14 363.051C204.78 363.541 199.389 362.54 194.562 360.158C194.221 359.997 193.886 359.823 193.558 359.636C193.454 359.589 193.353 359.535 193.255 359.475C189.168 357.202 185.683 353.984 183.089 350.09C180.496 346.197 178.871 341.739 178.347 337.089C178.334 336.98 178.322 336.864 178.309 336.754C177.961 336.935 177.613 337.109 177.272 337.289C177.285 337.399 177.297 337.502 177.317 337.611C177.912 342.359 179.617 346.9 182.295 350.864C184.973 354.829 188.547 358.105 192.727 360.429C192.856 360.499 192.991 360.577 193.126 360.641C193.461 360.822 193.796 360.996 194.131 361.163C199.088 363.596 204.614 364.628 210.114 364.147C210.404 364.121 210.694 364.089 210.984 364.056C210.984 363.689 210.99 363.328 210.99 362.961C210.707 362.993 210.423 363.025 210.14 363.051Z" fill="black" fill-opacity="0.15"/>
<path d="M209.258 375.03C203.46 376.934 197.214 376.981 191.388 375.165C190.221 374.805 189.079 374.37 187.968 373.864C187.62 373.709 187.279 373.542 186.938 373.368C186.571 373.187 186.21 372.994 185.856 372.801C181.039 370.117 177.073 366.134 174.41 361.304C171.747 356.475 170.494 350.994 170.794 345.486C170.872 343.933 171.079 342.39 171.412 340.872C171.431 340.769 171.45 340.666 171.476 340.563C171.051 340.827 170.626 341.091 170.208 341.362C170.188 341.458 170.169 341.549 170.156 341.645C169.779 343.726 169.621 345.84 169.686 347.954C169.828 353.242 171.345 358.402 174.087 362.925C176.828 367.448 180.701 371.178 185.322 373.748C185.682 373.948 186.043 374.141 186.403 374.321C186.745 374.495 187.093 374.663 187.434 374.824C194.214 377.93 201.899 378.432 209.026 376.235C209.264 376.171 209.503 376.093 209.741 376.016C209.837 375.604 209.921 375.191 209.998 374.779C209.754 374.869 209.509 374.953 209.258 375.03Z" fill="black" fill-opacity="0.15"/>
<path d="M172 133H132V173H172V133Z" fill="#9E616A"/>
<path d="M107.001 373L115.133 372.999L119 342L107 342.001L107.001 373Z" fill="#9E616A"/>
<path d="M128.574 381.795L116.867 373.447V368L115.54 368.08L107.194 368.598L104.553 368.758L103.049 387.38L103 388H108.529L108.641 387.38L109.517 382.612L111.755 387.38L112.045 388H126.703C127.575 387.998 128.412 387.64 129.03 387.003C129.648 386.367 129.996 385.504 130 384.602C130 384.05 129.871 383.506 129.622 383.017C129.374 382.528 129.014 382.109 128.574 381.795V381.795Z" fill="#2F2E41"/>
<path d="M153 367.849L160.737 370L173 342.175L161.582 339L153 367.849Z" fill="#9E616A"/>
<path d="M171.25 382.429L162.229 371.038L163.692 365.791L162.392 365.492L155.151 363.811L154.226 363.599L151.647 363L145 381.084L150.312 382.67L152.707 377.76L153.689 383.671L157.037 384.665L166.143 387.376L167.789 387.865C168.465 388.068 169.185 388.041 169.845 387.79C170.505 387.538 171.07 387.075 171.457 386.467C171.844 385.859 172.033 385.139 171.995 384.413C171.958 383.686 171.697 382.991 171.25 382.429V382.429Z" fill="#2F2E41"/>
<path d="M607.892 5H231.108C230.548 5.00174 230.012 5.23013 229.617 5.63509C229.222 6.04006 229 6.58857 229 7.1604V19.8396C229 20.4114 229 21.5 229 22C229.5 22 230.548 21.9983 231.108 22H607.892C608.452 21.9983 609.5 22 610 22C610 21.5 610 20.4115 610 19.8396V7.1604C610 6.58855 609.778 6.04001 609.383 5.63503C608.988 5.23005 608.452 5.00168 607.892 5Z" fill="#2A2F43"/>
<path d="M241.649 15.7047C243.302 15.7047 244.642 14.3638 244.642 12.7098C244.642 11.0557 243.302 9.71484 241.649 9.71484C239.996 9.71484 238.656 11.0557 238.656 12.7098C238.656 14.3638 239.996 15.7047 241.649 15.7047Z" fill="#FC6681"/>
<path d="M253.009 15.7047C254.662 15.7047 256.002 14.3638 256.002 12.7098C256.002 11.0557 254.662 9.71484 253.009 9.71484C251.356 9.71484 250.016 11.0557 250.016 12.7098C250.016 14.3638 251.356 15.7047 253.009 15.7047Z" fill="#05B962"/>
<path d="M264.37 15.7047C266.024 15.7047 267.364 14.3638 267.364 12.7098C267.364 11.0557 266.024 9.71484 264.37 9.71484C262.717 9.71484 261.377 11.0557 261.377 12.7098C261.377 14.3638 262.717 15.7047 264.37 15.7047Z" fill="#FDCB6E"/>
<path d="M596.76 8.71155H583.681C583.424 8.71155 583.177 8.81372 582.996 8.99559C582.814 9.17746 582.712 9.42413 582.712 9.68133C582.712 9.93853 582.814 10.1852 582.996 10.3671C583.177 10.5489 583.424 10.6511 583.681 10.6511H596.76C597.017 10.6511 597.263 10.5489 597.445 10.3671C597.627 10.1852 597.729 9.93853 597.729 9.68133C597.729 9.42413 597.627 9.17746 597.445 8.99559C597.263 8.81372 597.017 8.71155 596.76 8.71155V8.71155Z" fill="white"/>
<path d="M596.76 12.3458H583.681C583.554 12.3458 583.428 12.3709 583.31 12.4196C583.192 12.4684 583.086 12.5398 582.996 12.6299C582.906 12.7199 582.834 12.8268 582.785 12.9445C582.737 13.0621 582.712 13.1883 582.712 13.3156C582.712 13.443 582.737 13.5691 582.785 13.6867C582.834 13.8044 582.906 13.9113 582.996 14.0013C583.086 14.0914 583.192 14.1628 583.31 14.2116C583.428 14.2603 583.554 14.2854 583.681 14.2854H596.76C596.887 14.2854 597.013 14.2603 597.131 14.2116C597.248 14.1628 597.355 14.0914 597.445 14.0013C597.535 13.9113 597.607 13.8044 597.655 13.6867C597.704 13.5691 597.729 13.443 597.729 13.3156C597.729 13.1883 597.704 13.0621 597.655 12.9445C597.607 12.8268 597.535 12.7199 597.445 12.6299C597.355 12.5398 597.248 12.4684 597.131 12.4196C597.013 12.3709 596.887 12.3458 596.76 12.3458Z" fill="white"/>
<path d="M596.76 15.9801H583.681C583.424 15.9801 583.177 16.0823 582.996 16.2641C582.814 16.446 582.712 16.6927 582.712 16.9499C582.712 17.2071 582.814 17.4537 582.996 17.6356C583.177 17.8175 583.424 17.9197 583.681 17.9197H596.76C597.017 17.9197 597.263 17.8175 597.445 17.6356C597.627 17.4537 597.729 17.2071 597.729 16.9499C597.729 16.6927 597.627 16.446 597.445 16.2641C597.263 16.0823 597.017 15.9801 596.76 15.9801V15.9801Z" fill="white"/>
<path d="M591.272 52.5098H493.756C493.077 52.5115 492.426 52.7822 491.946 53.2628C491.466 53.7434 491.195 54.3947 491.193 55.0744V94.6709C491.195 95.3506 491.466 96.0019 491.946 96.4825C492.426 96.9631 493.077 97.2338 493.756 97.2355H591.272C591.952 97.2349 592.603 96.9645 593.084 96.4837C593.564 96.0028 593.835 95.3509 593.835 94.6709V55.0744C593.835 54.3944 593.564 53.7425 593.084 53.2616C592.603 52.7808 591.952 52.5104 591.272 52.5098V52.5098Z" fill="#F54EA2"/>
<path d="M581.986 110.071H503.042C502.227 110.071 501.445 110.395 500.868 110.973C500.291 111.55 499.967 112.332 499.967 113.148C499.967 113.964 500.291 114.747 500.868 115.324C501.445 115.901 502.227 116.225 503.042 116.225H581.986C585.992 116.283 585.953 110.013 581.986 110.071Z" fill="#F54EA2"/>
<path d="M581.986 124.177H503.042C502.227 124.177 501.445 124.501 500.868 125.078C500.291 125.655 499.967 126.438 499.967 127.254C499.967 128.07 500.291 128.852 500.868 129.429C501.445 130.006 502.227 130.33 503.042 130.33H581.986C585.992 130.388 585.953 124.119 581.986 124.177Z" fill="#F54EA2"/>
<path d="M581.986 138.282H503.042C502.227 138.282 501.445 138.606 500.868 139.183C500.291 139.76 499.967 140.543 499.967 141.359C499.967 142.175 500.291 142.957 500.868 143.534C501.445 144.111 502.227 144.436 503.042 144.436H581.986C585.992 144.494 585.953 138.224 581.986 138.282Z" fill="#F54EA2"/>
<path d="M465.123 52.5098H367.606C366.927 52.5115 366.276 52.7822 365.796 53.2628C365.316 53.7434 365.045 54.3947 365.043 55.0744V94.6709C365.045 95.3506 365.316 96.0019 365.796 96.4825C366.276 96.9631 366.927 97.2338 367.606 97.2355H465.123C465.802 97.2349 466.454 96.9645 466.934 96.4837C467.415 96.0028 467.685 95.3509 467.686 94.6709V55.0744C467.685 54.3944 467.415 53.7425 466.934 53.2616C466.454 52.7808 465.802 52.5104 465.123 52.5098Z" fill="#ED8B4E"/>
<path d="M455.837 110.071H376.892C376.077 110.071 375.295 110.395 374.718 110.973C374.141 111.55 373.817 112.332 373.817 113.148C373.817 113.964 374.141 114.747 374.718 115.324C375.295 115.901 376.077 116.225 376.892 116.225H455.837C459.842 116.283 459.803 110.013 455.837 110.071Z" fill="#ED8B4E"/>
<path d="M455.837 124.177H376.892C376.077 124.177 375.295 124.501 374.718 125.078C374.141 125.655 373.817 126.438 373.817 127.254C373.817 128.07 374.141 128.852 374.718 129.429C375.295 130.006 376.077 130.33 376.892 130.33H455.837C459.842 130.388 459.803 124.119 455.837 124.177Z" fill="#ED8B4E"/>
<path d="M455.837 138.282H376.892C376.077 138.282 375.295 138.606 374.718 139.183C374.141 139.76 373.817 140.543 373.817 141.359C373.817 142.175 374.141 142.957 374.718 143.534C375.295 144.111 376.077 144.436 376.892 144.436H455.837C459.842 144.494 459.803 138.224 455.837 138.282Z" fill="#ED8B4E"/>
<path d="M236.047 98.5463C235.909 98.9539 235.807 99.3732 235.744 99.799L191.265 91.942L152.953 71.2956C150.543 69.9967 147.729 69.6594 145.08 70.3519C142.431 71.0444 140.143 72.7151 138.678 75.0269C137.214 77.3388 136.68 80.1199 137.186 82.8092C137.693 85.4985 139.2 87.896 141.406 89.518H141.406C148.552 94.7747 156.475 98.8855 164.889 101.702L192.664 111L241.316 107.883C242.667 108.175 244.074 108.07 245.366 107.581C246.659 107.092 247.783 106.24 248.603 105.128C249.422 104.016 249.903 102.691 249.987 101.312C250.071 99.9337 249.754 98.5602 249.075 97.3571C248.396 96.154 247.384 95.1725 246.16 94.5309C244.936 93.8893 243.553 93.6148 242.176 93.7404C240.8 93.866 239.489 94.3865 238.402 95.2391C237.314 96.0917 236.497 97.2401 236.047 98.5463V98.5463Z" fill="#9E616A"/>
<path d="M320.813 105.521H196.514C195.647 105.522 194.815 105.867 194.202 106.481C193.589 107.095 193.244 107.926 193.242 108.794V159.255C193.244 160.123 193.589 160.955 194.202 161.568C194.815 162.182 195.647 162.527 196.514 162.528H320.813C321.679 162.526 322.509 162.18 323.121 161.566C323.733 160.953 324.077 160.122 324.078 159.255V108.794C324.077 107.928 323.733 107.096 323.121 106.483C322.509 105.869 321.679 105.523 320.813 105.521V105.521Z" fill="#42E695"/>
<path d="M308.976 178.889H208.35C207.31 178.889 206.312 179.302 205.577 180.038C204.841 180.774 204.428 181.772 204.428 182.813C204.428 183.854 204.841 184.852 205.577 185.588C206.312 186.324 207.31 186.737 208.35 186.737H308.976C314.083 186.808 314.032 178.818 308.976 178.889Z" fill="#42E695"/>
<path d="M308.976 196.867H208.35C207.31 196.867 206.312 197.28 205.577 198.016C204.841 198.752 204.428 199.75 204.428 200.791C204.428 201.832 204.841 202.83 205.577 203.566C206.312 204.302 207.31 204.715 208.35 204.715H308.976C314.083 204.786 314.032 196.796 308.976 196.867Z" fill="#42E695"/>
<path d="M308.976 214.851H208.35C207.835 214.851 207.326 214.953 206.85 215.15C206.375 215.347 205.943 215.636 205.579 216C205.215 216.364 204.927 216.796 204.73 217.272C204.533 217.748 204.431 218.257 204.431 218.772C204.431 219.287 204.533 219.797 204.73 220.273C204.927 220.749 205.215 221.181 205.579 221.545C205.943 221.909 206.375 222.198 206.85 222.395C207.326 222.592 207.835 222.693 208.35 222.693H308.976C314.083 222.764 314.032 214.78 308.976 214.851Z" fill="#42E695"/>
<path d="M172.819 50.9672C178.46 40.6417 174.667 27.6954 164.348 22.051C154.029 16.4065 141.091 20.2013 135.45 30.5269C129.809 40.8524 133.601 53.7986 143.92 59.4431C154.24 65.0875 167.178 61.2927 172.819 50.9672Z" fill="#9E616A"/>
<path d="M157.639 15H143.786C134.705 15 127.343 23.2434 127.343 33.4123C120.49 40.2607 122.547 48.8404 127.984 58.0769C137.796 59.2919 147.394 61.8469 156.506 65.6698L157.799 60.1742L160.349 67.4117C162.618 68.5056 164.867 69.7017 167.096 71C164.494 58.83 163.423 46.6882 165.21 37.2564H169.901V32.146L171.494 37.2564H180C180 34.3336 179.422 31.4395 178.298 28.7392C177.174 26.0389 175.527 23.5854 173.451 21.5187C171.374 19.452 168.909 17.8126 166.196 16.6941C163.483 15.5756 160.575 15 157.639 15Z" fill="#2F2E41"/>
<path d="M156.337 68.1199L130.706 67L130.017 69.6389C124.346 91.3483 123.471 114.047 127.452 136.134V136.134C128.213 136.856 128.769 137.77 129.063 138.781C129.356 139.792 129.377 140.864 129.123 141.886L128.755 143.365L128.789 143.419C129.997 145.34 130.407 147.664 129.93 149.887V149.887L131.212 157L172.733 138.516L182 106.191L156.337 68.1199Z" fill="#CACACA"/>
<path d="M220.555 136.029C220.266 136.347 220.006 136.69 219.778 137.054L182.166 112.209L155.295 78.1162C153.604 75.9714 151.162 74.546 148.46 74.1276C145.758 73.7091 142.997 74.3287 140.735 75.8613C138.473 77.394 136.877 79.7256 136.27 82.386C135.663 85.0465 136.089 87.8376 137.463 90.1966V90.1966C141.916 97.8414 147.536 104.746 154.121 110.663L175.861 130.194L221.664 146.66C222.785 147.463 224.115 147.926 225.494 147.992C226.873 148.058 228.241 147.725 229.435 147.034C230.628 146.342 231.596 145.321 232.222 144.094C232.848 142.866 233.104 141.484 232.962 140.114C232.819 138.744 232.282 137.445 231.417 136.372C230.551 135.299 229.393 134.499 228.083 134.068C226.772 133.636 225.364 133.592 224.029 133.94C222.693 134.288 221.487 135.013 220.555 136.029L220.555 136.029Z" fill="#9E616A"/>
<path d="M295.758 97.084C292.098 97.084 288.521 95.9981 285.477 93.9635C282.434 91.9289 280.063 89.037 278.662 85.6536C277.261 82.2702 276.895 78.5472 277.609 74.9554C278.323 71.3636 280.085 68.0644 282.673 65.4748C285.261 62.8853 288.558 61.1218 292.148 60.4073C295.738 59.6929 299.458 60.0595 302.84 61.461C306.221 62.8624 309.111 65.2357 311.144 68.2807C313.178 71.3257 314.263 74.9056 314.263 78.5678C314.263 83.4786 312.313 88.1883 308.843 91.6607C305.373 95.1332 300.666 97.084 295.758 97.084Z" fill="#42E695"/>
<path d="M302.06 76.7413H296.584V71.2617C296.584 70.7773 296.391 70.3127 296.049 69.9702C295.707 69.6276 295.242 69.4352 294.758 69.4352C294.274 69.4352 293.81 69.6276 293.468 69.9702C293.125 70.3127 292.933 70.7773 292.933 71.2617V76.7413H287.457C286.973 76.7422 286.51 76.935 286.168 77.2774C285.827 77.6199 285.635 78.0839 285.635 78.5678C285.635 79.0516 285.827 79.5157 286.168 79.8581C286.51 80.2005 286.973 80.3934 287.457 80.3943H292.933V85.8738C292.933 86.3583 293.125 86.8228 293.468 87.1654C293.81 87.5079 294.274 87.7004 294.758 87.7004C295.242 87.7004 295.707 87.5079 296.049 87.1654C296.391 86.8228 296.584 86.3583 296.584 85.8738V80.3943H302.06C302.3 80.3947 302.537 80.3478 302.759 80.2562C302.981 80.1647 303.183 80.0302 303.353 79.8605C303.523 79.6909 303.657 79.4894 303.749 79.2675C303.841 79.0457 303.889 78.8079 303.889 78.5678C303.889 78.3276 303.841 78.0898 303.749 77.868C303.657 77.6462 303.523 77.4447 303.353 77.275C303.183 77.1054 302.981 76.9709 302.759 76.8793C302.537 76.7877 302.3 76.7408 302.06 76.7413V76.7413Z" fill="white"/>
<path d="M199.212 294.529C199.883 292.759 200.131 290.856 199.935 288.974C199.739 287.091 199.105 285.28 198.084 283.686L179.816 188.932L172.63 153H129.512C129.512 153 102.563 182.824 108.312 220.912L106.703 274.552C105.176 278.231 104.8 282.286 105.622 286.183L106.263 289.218L106.016 289.675C104.839 291.852 104.207 294.281 104.173 296.756C104.14 299.23 104.706 301.676 105.823 303.884L104 364.641L116.936 363.922L135.979 293.136L148.556 229.536L169.756 278.763L170.474 290.261L170.125 300.396L153.586 359.61L167.6 365L199.212 294.529Z" fill="#2F2E41"/>
<path d="M283.141 388.233C283.14 388.436 283.059 388.631 282.916 388.775C282.772 388.919 282.577 388.999 282.374 389H0.766325C0.563083 389 0.368163 388.919 0.22445 388.775C0.0807364 388.632 0 388.437 0 388.233C0 388.03 0.0807364 387.835 0.22445 387.691C0.368163 387.547 0.563083 387.466 0.766325 387.466H282.374C282.475 387.466 282.575 387.486 282.668 387.524C282.761 387.563 282.846 387.619 282.917 387.69C282.988 387.762 283.044 387.846 283.083 387.939C283.121 388.033 283.141 388.132 283.141 388.233V388.233Z" fill="#616161" fill-opacity="0.5"/>
</g>
<defs>
<clipPath id="clip0_664_3479">
<rect width="610" height="389" fill="white"/>
</clipPath>
</defs>
</svg>
