<svg width="508" height="389" viewBox="0 0 508 389" fill="none" xmlns="http://www.w3.org/2000/svg">
<path d="M344.78 387.758C344.284 388.18 343.773 388.591 343.257 388.997H280.568C280.208 388.591 279.848 388.18 279.493 387.758C276.599 384.29 274.051 380.549 271.885 376.586C266.739 367.326 264.965 355.186 264.965 342.822C264.965 342.067 264.971 341.311 264.986 340.556C265.044 337.088 265.237 333.614 265.523 330.197C265.576 329.604 265.628 329.015 265.685 328.426C266.149 323.526 266.801 318.755 267.542 314.297C267.635 313.729 267.729 313.167 267.828 312.609C269.337 303.755 271.361 294.996 273.888 286.376C273.888 286.376 273.971 286.397 274.133 286.438C274.597 286.569 275.707 286.876 277.34 287.36C281.835 288.693 290.277 291.381 300.013 295.376C300.545 295.589 301.082 295.813 301.624 296.042C309.86 299.434 317.833 303.432 325.475 308.005C325.95 308.292 326.419 308.583 326.888 308.875V308.917L325.861 342.129L335.039 314.479C336.911 315.901 338.7 317.375 340.405 318.901C340.874 319.317 341.343 319.744 341.797 320.187C345.671 323.734 348.977 327.852 351.6 332.4C365.33 357.123 359.568 375.3 344.78 387.758Z" fill="black" fill-opacity="0.15"/>
<path d="M335.941 388.997H334.272C334.262 388.586 334.246 388.174 334.22 387.758C333.548 375.263 328.182 361.467 320.876 348.15C320.615 347.665 320.35 347.171 320.068 346.686C316.522 340.353 312.569 334.155 308.486 328.265C308.173 327.807 307.85 327.343 307.527 326.885C302.093 319.14 296.482 311.974 291.414 305.854C291.059 305.417 290.694 304.99 290.334 304.568C282.82 295.568 276.62 289.011 274.133 286.438C273.762 286.058 273.476 285.766 273.278 285.563C273.095 285.365 272.985 285.261 272.965 285.24L273.549 284.657L273.554 284.641L274.148 284.058C274.169 284.084 274.529 284.428 275.165 285.089C275.702 285.636 276.437 286.402 277.34 287.36C280.489 290.693 285.699 296.365 291.727 303.557C292.076 303.974 292.436 304.406 292.796 304.839C296.91 309.802 301.368 315.427 305.785 321.473C306.896 322.994 307.973 324.503 309.018 325.999C309.347 326.458 309.67 326.916 309.983 327.374C314.4 333.739 318.257 339.86 321.554 345.738L322.378 347.212C330.784 362.524 335.31 376.086 335.894 387.758C335.915 388.174 335.931 388.586 335.941 388.997Z" fill="black" fill-opacity="0.15"/>
<path d="M300.93 294.157C300.633 294.568 300.331 294.974 300.013 295.375C297.621 298.453 294.836 301.204 291.727 303.557C291.273 303.891 290.809 304.235 290.335 304.568C289.04 305.47 287.7 306.304 286.319 307.068C280.631 310.232 274.321 312.123 267.828 312.609C267.62 312.63 267.406 312.646 267.197 312.656C267.103 313.213 267.015 313.771 266.916 314.338C267.124 314.328 267.333 314.317 267.542 314.297C274.419 313.849 281.111 311.88 287.133 308.531C288.606 307.715 290.035 306.822 291.414 305.854C291.883 305.526 292.342 305.182 292.796 304.839C296.121 302.316 299.09 299.357 301.624 296.042C301.927 295.641 302.224 295.235 302.516 294.829C301.973 294.599 301.447 294.376 300.93 294.157Z" fill="black" fill-opacity="0.15"/>
<path d="M326.044 306.828C325.861 307.224 325.668 307.615 325.475 308.005C321.757 315.405 316.061 321.633 309.018 325.999C308.528 326.307 308.033 326.604 307.527 326.885C307.376 326.973 307.214 327.067 307.063 327.15C300.767 330.64 293.726 332.577 286.529 332.798C279.332 333.02 272.185 331.521 265.685 328.426C265.529 328.354 265.377 328.281 265.226 328.208C265.169 328.801 265.117 329.395 265.075 329.994C265.221 330.062 265.372 330.135 265.524 330.197C272.21 333.276 279.529 334.737 286.887 334.462C294.245 334.187 301.434 332.183 307.871 328.614C308.08 328.499 308.283 328.385 308.487 328.265C308.992 327.973 309.493 327.676 309.983 327.374C317.201 322.88 323.048 316.497 326.889 308.917C327.092 308.526 327.285 308.13 327.473 307.729C326.998 307.427 326.524 307.125 326.044 306.828Z" fill="black" fill-opacity="0.15"/>
<path d="M340.681 317.719C340.593 318.114 340.504 318.51 340.405 318.901C337.722 329.895 330.992 339.477 321.554 345.738C321.069 346.066 320.569 346.379 320.068 346.686C319.531 347.009 318.994 347.332 318.441 347.634C309.948 352.33 300.168 354.176 290.545 352.902C280.921 351.628 271.962 347.3 264.986 340.556C264.866 340.447 264.752 340.332 264.637 340.218C264.637 340.994 264.632 341.759 264.642 342.53C264.746 342.629 264.856 342.728 264.965 342.822C272.228 349.393 281.367 353.532 291.102 354.657C300.837 355.783 310.681 353.839 319.255 349.098C319.807 348.796 320.35 348.483 320.876 348.15C321.387 347.848 321.883 347.535 322.378 347.212C331.95 340.887 338.861 331.269 341.797 320.187C341.896 319.812 341.995 319.437 342.084 319.057C341.631 318.599 341.156 318.166 340.681 317.719Z" fill="black" fill-opacity="0.15"/>
<path d="M296.736 227.043C296.736 230.357 294.05 233.043 290.736 233.043H5.99999C2.68629 233.043 0 230.357 0 227.043V16.1323C0 12.8186 2.68629 10.1323 6 10.1323H290.736C294.05 10.1323 296.736 12.8186 296.736 16.1323V227.043Z" fill="white" fill-opacity="0.75"/>
<path d="M71.9593 56.8275C78.4876 56.8275 83.7798 51.5417 83.7798 45.0215C83.7798 38.5012 78.4876 33.2155 71.9593 33.2155C65.4309 33.2155 60.1387 38.5012 60.1387 45.0215C60.1387 51.5417 65.4309 56.8275 71.9593 56.8275Z" fill="#747474" fill-opacity="0.25"/>
<path d="M99.2593 37.1508C98.7374 37.1517 98.2372 37.3594 97.8685 37.7283C97.4998 38.0972 97.2927 38.5972 97.2927 39.1184C97.2927 39.6397 97.4998 40.1396 97.8685 40.5085C98.2372 40.8774 98.7374 41.0852 99.2593 41.0861H243.099C243.621 41.0852 244.121 40.8774 244.49 40.5085C244.859 40.1396 245.066 39.6397 245.066 39.1184C245.066 38.5972 244.859 38.0972 244.49 37.7283C244.121 37.3594 243.621 37.1517 243.099 37.1508H99.2593Z" fill="#747474" fill-opacity="0.25"/>
<path d="M99.2592 48.9568C98.7367 48.9557 98.2351 49.1619 97.8649 49.5302C97.4946 49.8984 97.286 50.3984 97.2849 50.9203C97.2838 51.4422 97.4903 51.9431 97.859 52.3129C98.2277 52.6827 98.7284 52.891 99.2509 52.8921H190.188C190.447 52.8926 190.704 52.842 190.943 52.7434C191.182 52.6447 191.4 52.4998 191.583 52.3171C191.767 52.1343 191.912 51.9172 192.011 51.6783C192.111 51.4393 192.162 51.1831 192.162 50.9245C192.162 50.6658 192.111 50.4096 192.011 50.1706C191.912 49.9317 191.767 49.7146 191.583 49.5319C191.4 49.3491 191.182 49.2042 190.943 49.1056C190.704 49.0069 190.447 48.9563 190.188 48.9568H99.2592Z" fill="#747474" fill-opacity="0.25"/>
<path d="M296.736 227.043C296.736 230.357 294.05 233.043 290.736 233.043H5.99999C2.68629 233.043 0 230.357 0 227.043V16.1323C0 12.8186 2.68629 10.1323 6 10.1323H290.736C294.05 10.1323 296.736 12.8186 296.736 16.1323V227.043ZM3.32121 223.718C3.32121 227.031 6.00751 229.718 9.32121 229.718H287.415C290.728 229.718 293.415 227.031 293.415 223.718V19.4578C293.415 16.1441 290.728 13.4578 287.415 13.4578H9.32122C6.00751 13.4578 3.32121 16.1441 3.32121 19.4578V223.718Z" fill="white" fill-opacity="0.75"/>
<path d="M16.5979 78.2456V210.599H280.363V78.2456H16.5979ZM279.095 111.017H214.739V79.5121H279.095V111.017ZM149.115 111.017V79.5121H213.471V111.017H149.115ZM213.471 112.284V143.789H149.115V112.284H213.471ZM147.846 111.017H83.4903V79.5121H147.846V111.017ZM147.846 112.284V143.789H83.4903V112.284H147.846ZM82.2222 143.789H17.866V112.284H82.2222V143.789ZM82.2222 145.056V176.561H17.866V145.056H82.2222ZM83.4903 145.056H147.846V176.561H83.4903V145.056ZM147.846 177.827V209.332H83.4903V177.827H147.846ZM149.115 177.827H213.471V209.332H149.115V177.827ZM149.115 176.561V145.056H213.471V176.561H149.115ZM214.739 145.056H279.095V176.561H214.739V145.056ZM214.739 143.789V112.284H279.095V143.789H214.739ZM82.2222 79.5121V111.017H17.866V79.5121H82.2222ZM17.866 177.827H82.2222V209.332H17.866V177.827ZM214.739 209.332V177.827H279.095V209.332H214.739Z" fill="#919191" fill-opacity="0.5"/>
<path d="M124.876 113.853L98.6309 113.259C96.0057 103.102 97.1876 93.4316 99.2825 84.52L125.527 85.1135C122.873 94.4829 122.649 104.373 124.876 113.853V113.853Z" fill="#ED8B4E"/>
<path d="M103.779 90.8717L103.793 89.8743L117.39 90.3593L117.376 91.3567L103.779 90.8717Z" fill="white"/>
<path d="M103.722 94.8612L103.736 93.8638L117.332 94.3495L117.319 95.3469L103.722 94.8612Z" fill="white"/>
<path d="M103.664 98.8508L103.679 97.8534L117.275 98.3391L117.261 99.3365L103.664 98.8508Z" fill="white"/>
<path d="M103.607 102.84L103.621 101.843L117.218 102.329L117.204 103.326L103.607 102.84Z" fill="white"/>
<path d="M103.55 106.83L103.564 105.833L117.161 106.318L117.147 107.316L103.55 106.83Z" fill="white"/>
<path d="M67.8115 187.312L41.5664 186.718C38.9412 176.562 40.1231 166.891 42.218 157.979L68.463 158.573C65.8084 167.942 65.5842 177.832 67.8115 187.312Z" fill="#42E695"/>
<path d="M46.7144 164.331L46.7283 163.333L60.3255 163.819L60.3109 164.816L46.7144 164.331Z" fill="white"/>
<path d="M46.6572 168.32L46.6712 167.323L60.2678 167.809L60.2538 168.806L46.6572 168.32Z" fill="white"/>
<path d="M46.5996 172.31L46.6142 171.313L60.2108 171.798L60.1968 172.796L46.5996 172.31Z" fill="white"/>
<path d="M46.5425 176.3L46.5564 175.302L60.1537 175.788L60.1391 176.785L46.5425 176.3Z" fill="white"/>
<path d="M46.4854 180.289L46.4993 179.292L60.0965 179.778L60.0819 180.775L46.4854 180.289Z" fill="white"/>
<path d="M204.766 153.749L178.521 153.155C175.896 142.998 177.078 133.328 179.173 124.416L205.418 125.009C202.763 134.379 202.539 144.269 204.766 153.749V153.749Z" fill="#888888" fill-opacity="0.5"/>
<path d="M183.669 130.768L183.683 129.77L197.281 130.255L197.266 131.253L183.669 130.768Z" fill="white"/>
<path d="M183.612 134.757L183.626 133.76L197.223 134.245L197.209 135.243L183.612 134.757Z" fill="white"/>
<path d="M183.555 138.747L183.569 137.749L197.166 138.235L197.152 139.233L183.555 138.747Z" fill="white"/>
<path d="M183.498 142.736L183.512 141.739L197.109 142.225L197.094 143.222L183.498 142.736Z" fill="white"/>
<path d="M183.44 146.726L183.454 145.729L197.052 146.214L197.037 147.212L183.44 146.726Z" fill="white"/>
<path d="M193.354 147.416L167.108 146.823C164.483 136.666 165.665 126.995 167.76 118.083L194.005 118.677C191.35 128.046 191.126 137.936 193.354 147.416V147.416Z" fill="#F54EA2"/>
<path d="M172.256 124.435L172.27 123.438L185.868 123.923L185.853 124.92L172.256 124.435Z" fill="white"/>
<path d="M172.199 128.425L172.213 127.427L185.81 127.913L185.796 128.91L172.199 128.425Z" fill="white"/>
<path d="M172.142 132.414L172.156 131.417L185.753 131.902L185.739 132.9L172.142 132.414Z" fill="white"/>
<path d="M172.085 136.404L172.099 135.406L185.696 135.892L185.681 136.889L172.085 136.404Z" fill="white"/>
<path d="M172.028 140.393L172.042 139.396L185.639 139.882L185.624 140.879L172.028 140.393Z" fill="white"/>
<path d="M290.152 205.265L263.907 204.671C261.281 194.515 262.463 184.844 264.558 175.932L290.803 176.526C288.148 185.895 287.924 195.785 290.152 205.265Z" fill="#7117EA"/>
<path d="M269.054 182.283L269.069 181.286L282.666 181.772L282.651 182.769L269.054 182.283Z" fill="white"/>
<path d="M268.998 186.273L269.011 185.276L282.609 185.761L282.594 186.759L268.998 186.273Z" fill="white"/>
<path d="M268.94 190.263L268.954 189.266L282.551 189.751L282.537 190.748L268.94 190.263Z" fill="white"/>
<path d="M268.883 194.253L268.897 193.255L282.494 193.74L282.479 194.738L268.883 194.253Z" fill="white"/>
<path d="M268.826 198.242L268.84 197.245L282.437 197.731L282.422 198.728L268.826 198.242Z" fill="white"/>
<path d="M261.831 118.919L235.586 118.325C232.961 108.169 234.143 98.4978 236.238 89.5862L262.483 90.1797C259.828 99.5491 259.604 109.439 261.831 118.919V118.919Z" fill="#5B247A"/>
<path d="M240.734 95.9378L240.748 94.9404L254.345 95.4255L254.33 96.4229L240.734 95.9378Z" fill="white"/>
<path d="M240.677 99.9273L240.691 98.9299L254.288 99.4157L254.274 100.413L240.677 99.9273Z" fill="white"/>
<path d="M240.619 103.917L240.634 102.92L254.23 103.405L254.216 104.403L240.619 103.917Z" fill="white"/>
<path d="M240.562 107.907L240.576 106.909L254.173 107.395L254.159 108.392L240.562 107.907Z" fill="white"/>
<path d="M240.505 111.896L240.519 110.899L254.116 111.385L254.102 112.382L240.505 111.896Z" fill="white"/>
<path d="M288.736 184.085C289.642 183.863 290.487 183.444 291.213 182.86C291.938 182.276 292.527 181.54 292.937 180.704C293.348 179.868 293.569 178.953 293.587 178.022C293.604 177.091 293.417 176.168 293.039 175.317L309.587 159.859L298.139 157.111L284.18 172.212C282.791 172.941 281.718 174.154 281.165 175.621C280.612 177.088 280.616 178.706 281.178 180.17C281.739 181.633 282.819 182.84 284.212 183.562C285.605 184.284 287.215 184.47 288.736 184.085H288.736Z" fill="#FFB6B6"/>
<path d="M297.285 171.634L289.567 160.766L318.555 130.821L325.286 83.6199C325.619 81.2868 326.462 79.0554 327.755 77.0843C329.048 75.1131 330.76 73.4505 332.769 72.2144C334.778 70.9784 337.035 70.1992 339.379 69.9322C341.724 69.6652 344.098 69.917 346.334 70.6697C350.371 72.0336 353.702 74.9414 355.595 78.755C357.488 82.5686 357.79 86.9765 356.433 91.0117L339.26 141.9L297.285 171.634Z" fill="#B7B7B7"/>
<path d="M351.713 372.753L343.146 372.753L339.07 339.748L351.715 339.749L351.713 372.753Z" fill="#FFB6B6"/>
<path d="M355.594 387.938H349.514L348.429 382.206L345.65 387.938H329.527C328.754 387.938 328.001 387.692 327.379 387.234C326.756 386.777 326.297 386.133 326.067 385.396C325.837 384.659 325.848 383.868 326.1 383.138C326.352 382.408 326.831 381.778 327.467 381.34L340.343 372.458V366.663L353.886 367.47L355.594 387.938Z" fill="#2F2E41"/>
<path d="M404.568 364.046L397.043 368.135L377.668 341.091L388.775 335.055L404.568 364.046Z" fill="#FFB6B6"/>
<path d="M414.39 374.96L409.051 377.863L405.354 373.345L405.656 379.707L391.494 387.404C390.815 387.773 390.036 387.916 389.27 387.811C388.505 387.707 387.793 387.36 387.238 386.823C386.683 386.285 386.315 385.585 386.187 384.824C386.059 384.062 386.178 383.28 386.527 382.591L393.587 368.644L390.813 363.553L403.095 357.797L414.39 374.96Z" fill="#2F2E41"/>
<path d="M355.323 361H337.618V298.032L326.657 256.979C318.79 227.621 316.699 197.017 320.501 166.864L320.516 166.741L320.611 166.661C320.893 166.425 348.946 143.257 366.691 160.98C378.652 172.926 367.413 215.882 366.784 218.24V292.291L355.323 361Z" fill="#2F2E41"/>
<path d="M315.109 178.302L320.815 121.308C320.074 119.754 309.402 109.909 320.561 92.6002L332.613 64.3452L355.183 63.9949L355.278 64.0898C360.588 69.3816 364.504 75.9034 366.678 83.0738C368.852 90.2442 369.215 97.8404 367.736 105.185L361.085 138.398L366.848 161.42L315.109 178.302Z" fill="#B7B7B7"/>
<path d="M344.76 298.357L381.132 349.453L395.084 339.546L364.708 277.2L344.76 298.357Z" fill="#2F2E41"/>
<path d="M341.789 58.6017C353.299 58.6017 362.63 49.2823 362.63 37.7861C362.63 26.29 353.299 16.9706 341.789 16.9706C330.279 16.9706 320.948 26.29 320.948 37.7861C320.948 49.2823 330.279 58.6017 341.789 58.6017Z" fill="#FFB6B6"/>
<path opacity="0.1" d="M336.667 113.075L342.373 147.272L336.667 175.769H325.254L330.441 147.272L336.667 113.075Z" fill="black"/>
<path d="M342.111 205.131C342.804 204.509 343.353 203.742 343.718 202.886C344.083 202.029 344.255 201.103 344.223 200.173C344.191 199.242 343.955 198.33 343.532 197.501C343.108 196.671 342.508 195.945 341.773 195.372L349.085 173.953L337.69 176.912L332.493 196.798C331.612 198.095 331.237 199.67 331.441 201.224C331.644 202.778 332.411 204.204 333.597 205.231C334.782 206.258 336.304 206.815 337.873 206.797C339.442 206.778 340.95 206.185 342.111 205.131V205.131Z" fill="#FFB6B6"/>
<path d="M343.783 190.126L331.851 184.167L343.308 144.117L326.995 99.3105C326.188 97.0957 325.88 94.7308 326.092 92.3836C326.303 90.0364 327.03 87.7646 328.22 85.7294C329.409 83.6942 331.033 81.9455 332.975 80.6075C334.918 79.2695 337.131 78.375 339.459 77.9875V77.9875C343.663 77.2923 347.972 78.2914 351.44 80.7655C354.908 83.2396 357.252 86.9867 357.957 91.1847L366.797 144.155L343.783 190.126Z" fill="#B7B7B7"/>
<path d="M433.691 388.194C433.691 388.277 433.683 388.36 433.666 388.437C433.65 388.514 433.625 388.584 433.595 388.642C433.564 388.701 433.528 388.748 433.488 388.78C433.448 388.811 433.405 388.828 433.362 388.827H254.583C254.496 388.827 254.412 388.761 254.351 388.642C254.289 388.523 254.254 388.362 254.254 388.194C254.254 388.026 254.289 387.865 254.351 387.746C254.412 387.627 254.496 387.561 254.583 387.561H433.362C433.449 387.561 433.533 387.628 433.594 387.747C433.656 387.865 433.691 388.026 433.691 388.194V388.194Z" fill="#616161" fill-opacity="0.5"/>
<path d="M422.845 36.7684C420.216 41.0316 414.646 42.911 409.706 42.0574C404.766 41.2038 400.474 38.0193 397.303 34.1406C394.132 30.2619 391.939 25.6962 389.781 21.1768C387.623 16.6573 385.44 12.0883 382.285 8.19669C379.131 4.30508 374.861 1.0961 369.928 0.202294C367.243 -0.284133 364.203 0.0370078 362.244 1.93393C360.893 3.35573 360.156 5.25041 360.191 7.20989C359.337 6.90969 358.422 6.82383 357.528 6.95991C356.633 7.096 355.785 7.44983 355.06 7.99022C354.334 8.53062 353.753 9.24099 353.367 10.0587C352.981 10.8764 352.802 11.7764 352.847 12.6793C352.774 12.6779 352.702 12.6731 352.629 12.6731C343.437 7.45389 329.486 10.4858 329.486 16.1852C324.443 16.1852 318.279 21.1597 318.279 28.7136V28.7136C328.708 28.7136 334.846 42.0596 328.757 51.6289C327.186 54.0697 325.453 56.4033 323.571 58.6143H336.612C337.707 57.0463 338.367 55.2175 338.526 53.313C339.005 55.0433 339.291 56.8212 339.38 58.6143C339.38 58.6143 375.004 63.199 365.809 27.7342C366.418 27.7039 367.009 27.5247 367.532 27.2126C368.921 26.3768 369.677 24.6092 369.809 22.8156C370.153 22.9073 370.496 22.9989 370.837 23.0902C373.288 23.751 375.834 24.6073 377.517 26.5063C380.36 29.7158 379.762 34.5873 380.794 38.7468C382.039 43.763 385.764 47.8203 389.901 50.9236C394.347 54.2579 399.54 56.791 405.074 57.3169C410.609 57.8427 416.498 56.1618 420.332 52.1417C424.167 48.1216 425.503 41.6455 422.845 36.7684Z" fill="#2F2E41"/>
<path d="M295.357 5H1.64337C1.20707 5.00174 0.789113 5.23013 0.481078 5.63509C0.173043 6.04006 7.01417e-05 6.58857 7.21694e-05 7.1604V19.8396C5.95322e-05 20.4114 0 21.5 0 22C0.389901 22 1.20707 21.9983 1.64337 22H295.357C295.793 21.9983 296.61 22 297 22C297 21.5 297 20.4115 297 19.8396V7.1604C297 6.58855 296.827 6.04001 296.519 5.63503C296.211 5.23005 295.793 5.00168 295.357 5Z" fill="#2A2F43"/>
<path d="M284.76 8.71155H271.681C271.424 8.71155 271.177 8.81372 270.996 8.99559C270.814 9.17746 270.712 9.42413 270.712 9.68133C270.712 9.93853 270.814 10.1852 270.996 10.3671C271.177 10.5489 271.424 10.6511 271.681 10.6511H284.76C285.017 10.6511 285.263 10.5489 285.445 10.3671C285.627 10.1852 285.729 9.93853 285.729 9.68133C285.729 9.42413 285.627 9.17746 285.445 8.99559C285.263 8.81372 285.017 8.71155 284.76 8.71155V8.71155Z" fill="white"/>
<path d="M284.76 12.3458H271.681C271.554 12.3458 271.428 12.3709 271.31 12.4196C271.192 12.4684 271.086 12.5398 270.996 12.6299C270.906 12.7199 270.834 12.8268 270.785 12.9445C270.737 13.0621 270.712 13.1883 270.712 13.3156C270.712 13.443 270.737 13.5691 270.785 13.6867C270.834 13.8044 270.906 13.9113 270.996 14.0013C271.086 14.0914 271.192 14.1628 271.31 14.2116C271.428 14.2603 271.554 14.2854 271.681 14.2854H284.76C284.887 14.2854 285.013 14.2603 285.131 14.2116C285.248 14.1628 285.355 14.0914 285.445 14.0013C285.535 13.9113 285.607 13.8044 285.655 13.6867C285.704 13.5691 285.729 13.443 285.729 13.3156C285.729 13.1883 285.704 13.0621 285.655 12.9445C285.607 12.8268 285.535 12.7199 285.445 12.6299C285.355 12.5398 285.248 12.4684 285.131 12.4196C285.013 12.3709 284.887 12.3458 284.76 12.3458Z" fill="white"/>
<path d="M284.76 15.9801H271.681C271.424 15.9801 271.177 16.0823 270.996 16.2641C270.814 16.446 270.712 16.6927 270.712 16.9499C270.712 17.2071 270.814 17.4537 270.996 17.6356C271.177 17.8175 271.424 17.9197 271.681 17.9197H284.76C285.017 17.9197 285.263 17.8175 285.445 17.6356C285.627 17.4537 285.729 17.2071 285.729 16.9499C285.729 16.6927 285.627 16.446 285.445 16.2641C285.263 16.0823 285.017 15.9801 284.76 15.9801V15.9801Z" fill="white"/>
<path d="M10.9931 15.9899C12.6461 15.9899 13.9861 14.649 13.9861 12.9949C13.9861 11.3409 12.6461 10 10.9931 10C9.34003 10 8 11.3409 8 12.9949C8 14.649 9.34003 15.9899 10.9931 15.9899Z" fill="#FC6681"/>
<path d="M22.3539 15.9899C24.0069 15.9899 25.347 14.649 25.347 12.9949C25.347 11.3409 24.0069 10 22.3539 10C20.7009 10 19.3608 11.3409 19.3608 12.9949C19.3608 14.649 20.7009 15.9899 22.3539 15.9899Z" fill="#05B962"/>
<path d="M33.715 15.9899C35.368 15.9899 36.7081 14.649 36.7081 12.9949C36.7081 11.3409 35.368 10 33.715 10C32.062 10 30.7219 11.3409 30.7219 12.9949C30.7219 14.649 32.062 15.9899 33.715 15.9899Z" fill="#FDCB6E"/>
</svg>
